<svg width="152" height="150" viewBox="0 0 152 150" fill="none" xmlns="http://www.w3.org/2000/svg">
<circle cx="76" cy="75" r="75" fill="#E4F1F5"/>
<path d="M76.0197 55.6896L76.02 55.6902L76.0202 55.6905L76.986 57.7487L77.8496 55.6457L77.8496 55.6456L77.8498 55.6453L77.8501 55.6446L77.8513 55.6417L77.8606 55.6197C77.8696 55.5988 77.884 55.5656 77.904 55.5209C77.9441 55.4314 78.0065 55.296 78.0922 55.1212C78.2636 54.7715 78.5278 54.2652 78.892 53.6544C79.6216 52.4311 80.7469 50.7985 82.3253 49.1679C85.4738 45.9149 90.4085 42.6801 97.6438 42.6801C112.047 42.6801 120.282 55.0421 120.282 68.2417C120.282 73.5058 117.655 79.1716 113.545 84.7836C109.449 90.3762 103.966 95.7987 98.4506 100.555C92.9401 105.306 87.4252 109.369 83.2853 112.245C81.2163 113.682 79.4928 114.821 78.2879 115.6C77.7066 115.976 77.2461 116.269 76.9259 116.47C76.6035 116.267 76.1388 115.971 75.5515 115.59C74.3392 114.804 72.6051 113.655 70.5233 112.208C66.358 109.311 60.809 105.224 55.2646 100.455C49.7151 95.6816 44.1986 90.2502 40.0771 84.669C35.9401 79.0667 33.3 73.4356 33.3 68.2417C33.3 61.7958 35.3003 55.3864 39.154 50.6089C42.9892 45.8544 48.6839 42.6801 56.2062 42.6801C63.0323 42.6801 67.972 45.9049 71.2364 49.1785C72.8691 50.8157 74.0714 52.4552 74.8645 53.6843C75.2606 54.2981 75.5531 54.8072 75.7449 55.1594C75.8408 55.3354 75.9114 55.472 75.9571 55.5626C75.9799 55.6079 75.9966 55.6417 76.007 55.6631L76.018 55.6859L76.0197 55.6896Z" fill="#AC1229" stroke="#262626" stroke-width="2"/>
<path d="M76.664 67.4248C76.664 67.4248 67.4737 50.4248 56.7315 50.4248C44.9937 50.4248 40.4115 58.8 40.4115 68.7848C40.4115 85.3627 76.664 108.565 76.664 108.565C76.664 108.565 113.852 84.2015 113.852 67.4248C113.852 57.2387 107.51 49.0648 96.1715 49.0648C84.8326 49.0648 76.664 67.4248 76.664 67.4248Z" fill="#F2B3AB" stroke="#262626" stroke-width="2" stroke-linecap="round" stroke-dasharray="4 4"/>
</svg>
