<?xml version="1.0" encoding="utf-8"?>
<!-- Generator: Adobe Illustrator 26.0.2, SVG Export Plug-In . SVG Version: 6.00 Build 0)  -->
<svg version="1.1" id="Layer_1" xmlns="http://www.w3.org/2000/svg" xmlns:xlink="http://www.w3.org/1999/xlink" x="0px" y="0px"
	 viewBox="0 0 88 161" style="enable-background:new 0 0 88 161;" xml:space="preserve">
<style type="text/css">
	.st0{fill:#191919;}
	.st1{fill:#E71A3A;}
	.st2{fill:#FAC09F;}
	.st3{fill:#563836;}
	.st4{fill:none;stroke:#563836;stroke-width:7.072631e-02;stroke-linecap:round;stroke-linejoin:round;stroke-miterlimit:10;}
	.st5{fill:#F1F2F2;}
	.st6{fill:#FF896B;}
	.st7{fill:#991F36;}
	.st8{clip-path:url(#SVGID_00000085221624547421655430000010313959624618909336_);fill:#F1F2F2;}
</style>
<desc>Created with Sketch.</desc>
<g>
	<g>
		<g>
			<defs>
				<path id="SVGID_1_" d="M87.5,103c0-13.3-8.7-20.1-19.5-20.1H52.4h-7.1H29.8c-10.8,0-19.5,6.8-19.5,20.1v7.3l12.5,0
					c-0.6,9.1-1.6,18.8,4.7,29c0,0,8.1,1.8,21.6,1.8c13.5,0,21.8-1.8,21.8-1.8c6.3-10.2,6-22.2,4.7-29l11.9,0V103z"/>
			</defs>
			<clipPath id="SVGID_00000041983369168398148120000007535202224138891402_">
				<use xlink:href="#SVGID_1_"  style="overflow:visible;"/>
			</clipPath>
		</g>
	</g>
	<g>
		<g>
			<path class="st0" d="M72.6,156.8L72.6,156.8c0.1-2.2-1.4-4.1-4.5-4.2c-1.1,0-2.5,0-4,0.1l8-19.4H26.1l8,19.4
				c-1.8-0.1-3.4-0.2-4.5-0.2c-3.1,0.1-4.6,2.1-4.5,4.2h0c0,0,0,0,0,0v0h0c0.2,2.2,1.9,3.9,5,3.6c3.7-0.3,11-2.3,16.2-3.8
				c0.7-0.2,1.1-0.4,1.3-1.1c0.2-0.7,1.2-4.1,1.2-4.1s1,3.4,1.2,4c0.2,0.7,0.7,1,1.3,1.1c5.2,1.5,12.6,3.5,16.3,3.8
				C70.7,160.7,72.4,159,72.6,156.8L72.6,156.8L72.6,156.8C72.6,156.8,72.6,156.8,72.6,156.8"/>
			<path class="st1" d="M87.5,103c0-13.3-8.7-20.1-19.5-20.1H52.4h-7.1H29.8c-10.8,0-19.5,6.8-19.5,20.1v7.3l12.5,0
				c-0.6,9.1-1.6,18.8,4.7,29c0,0,8.1,1.8,21.6,1.8c13.5,0,21.8-1.8,21.8-1.8c6.3-10.2,6-22.2,4.7-29l11.9,0V103z"/>
			<polygon class="st1" points="25.8,25.6 23.8,27.2 14,14 15.9,12.5 			"/>
			<path class="st2" d="M80.4,41.3c6.8,19.2-1.1,40.2-20.1,46.8c-17.7,6.1-37.9-3.4-44.6-22.5c-6.8-19.2,2.2-40.1,20.1-46.8
				C53.7,12,73.7,22.1,80.4,41.3"/>
			<path class="st2" d="M17.2,62.3c0,0-2.4-1.7-4,0.3c-1.7,2-0.7,5.1,2.1,7.7c2.8,2.6,3.6,7.7,5.1,9.1c2.6,2.4,5.1-0.9,6.3-1.5
				c1.2-0.6-3.7-10.8-3.7-10.8L17.2,62.3z"/>
			<path class="st2" d="M77.3,39.8c0,0,0.8-2.9,3.3-2.4c2.5,0.4,3.7,3.4,3.2,7.3c-0.5,3.8,2.1,8.2,1.8,10.3
				c-0.5,3.5-4.5,2.7-5.8,3.1c-1.3,0.4-3.9-10.7-3.9-10.7L77.3,39.8z"/>
			<path class="st3" d="M32.5,60.4c3.2-1.9,5.4-0.5,5.1-1c-1-1.8-3.8-2.9-6.4-1.3c-2.4,1.4-3.1,4.5-2.1,6.4
				C29.4,64.9,29.5,62.2,32.5,60.4"/>
			<path class="st4" d="M32.5,60.4c3.2-1.9,5.4-0.5,5.1-1c-1-1.8-3.8-2.9-6.4-1.3c-2.4,1.4-3.1,4.5-2.1,6.4
				C29.4,64.9,29.5,62.2,32.5,60.4z"/>
			<path class="st3" d="M63.7,48.7c3.7-0.7,5.2,1.4,5.1,0.9c-0.4-2.1-2.6-4-5.6-3.5c-2.7,0.5-4.4,3.2-4.1,5.2
				C59.2,51.9,60.3,49.4,63.7,48.7"/>
			<path class="st4" d="M63.7,48.7c3.7-0.7,5.2,1.4,5.1,0.9c-0.4-2.1-2.6-4-5.6-3.5c-2.7,0.5-4.4,3.2-4.1,5.2
				C59.2,51.9,60.3,49.4,63.7,48.7z"/>
			<path class="st3" d="M20.7,29.9c0,0,1,11.4,19.5,12.8c11.3,0.8,20.9-4.3,20.9-4.3s-1.7-3.4-4.5-5.3c-0.4-0.3-1.2-0.7,0.4-0.1
				c3.3,1.2,9.9,3.3,14.5,2.4c0,0-0.8-4.2-2.7-5c-4.8-2.1,3.9,2.2,11,10c0,0-3.9-18.5-23.2-23.9C42,12.3,28.8,19.1,20.7,29.9"/>
			<path class="st3" d="M22.9,27.9C10.1,33.7,7.7,49,15.6,65c0,0,0.8-6.7,1.7-9.7c0.9-3,1.7,2.3,1.7,2.3s15-12.2,6.2-24.3
				C22.5,29.5,22.9,27.9,22.9,27.9"/>
			<path class="st1" d="M57.6,16.8C51.1,18.6,24.4,27.4,11.7,55c-0.2,0.3-0.7,0.7-1,0c-1.8-4-5.7-19.9,8-32.3
				c18.1-16.3,34.2-9.8,39.2-6.8C58.6,16.2,58.5,16.6,57.6,16.8"/>
			<path class="st5" d="M21.2,21.3c0,0-5.9,9-1,20c0,0,7.8-10.4,21.6-17.9C41.8,23.3,34,16,21.2,21.3"/>
			<path class="st1" d="M13,14.8c2-1.1,11.2-6,14.3-8.6c1.8-1.5,1.9-3.4,0.9-4.7l0,0c0,0,0,0,0,0c0,0,0,0,0,0l0,0
				c-1.1-1.2-2.8-1.5-4.6,0.1C20.5,4.4,14.3,12.9,13,14.8C12.9,14.8,12.9,14.9,13,14.8"/>
			<path class="st1" d="M16.8,11.5c-1.4,1.9-7.9,10.2-11,12.8c-1.8,1.6-3.6,1.3-4.6,0l0,0c0,0,0,0,0,0c0,0,0,0,0,0v0
				c-1-1.3-0.9-3.2,1-4.6C5.4,17.2,14.6,12.5,16.8,11.5C16.7,11.5,16.8,11.5,16.8,11.5"/>
			<path class="st6" d="M64.1,59.5c2.8,6.9-0.3,14.9-7,17.8c-6.7,2.9-14.4-0.3-17.2-7.3L64.1,59.5z"/>
			<path class="st5" d="M42.4,68.9l19-8.2c0,0,0.2,2.5,0.3,2.7c0,0.2-0.1,0.5-0.2,0.6c-1.2,1.2-7,6.3-16.8,7.3
				c-0.1,0-0.3,0.1-0.5-0.2C43.9,70.8,42.4,68.9,42.4,68.9"/>
			<path class="st5" d="M24.5,110.1c0,0,21.8,7.9,48.5,0.1l-0.5,7.1c0,0-10,3.1-23.2,3.1c-13.2,0-24-2.7-24-2.7L24.5,110.1z"/>
			<path class="st5" d="M23.5,125.5c0,0,24.2,7.2,51.3-0.6l-1.7,7.7c0,0-11,2.5-24.3,2.5c-13.2,0-24.2-2.1-24.2-2.1L23.5,125.5z"/>
		</g>
		<g>
			<path class="st2" d="M12.4,110.5c0,7.2,1.4,14.5,3.4,20.9c0.5,1.6,1.8,4.2,3,0.8c0,0,0.5,2.4,1.4,2.8c0.5,0.2,1.9-0.1,1.9-2.2
				c0,0,1.4,3.9,3,3.1c1.3-0.7-0.1-5.9-0.1-5.9s2.6,2.7,3.8,1.5c0.6-0.6-1.7-5-2.6-8.6c-0.7-2.9-1.2-7.4-1.6-12.6
				C24.5,108.4,12.4,108,12.4,110.5"/>
			<path class="st2" d="M85.2,110.5c0,7.2-1.4,14.5-3.4,20.9c-0.5,1.6-1.8,4.2-3,0.8c0,0-0.5,2.4-1.4,2.8c-0.5,0.2-1.9-0.1-1.9-2.2
				c0,0-1.4,3.9-3,3.1c-1.3-0.7,0.1-5.9,0.1-5.9s-2.6,2.7-3.8,1.5c-0.6-0.6,1.6-4.6,2.5-8.1c0.9-3.3,1-7.6,1.7-13
				C73.2,108.4,85.2,108,85.2,110.5"/>
			<path class="st7" d="M24.6,110.2c0,0-0.3-2.9-0.1-7.9c0-0.4-0.1-0.6-0.3,0.1c-0.6,2.2-1.3,6.7-1,6.8
				C24.5,109.7,24.6,110.2,24.6,110.2"/>
			<path class="st7" d="M73,110.2c0,0,0.3-2.9,0.2-7.9c0-0.4,0.1-0.6,0.3,0.1c0.6,2.2,1.4,6.7,1,6.8C73.2,109.8,73,110.2,73,110.2"
				/>
		</g>
		<g>
			<defs>
				<path id="SVGID_00000107575107896349628810000010516726374055893378_" d="M87.5,103c0-13.3-8.7-20.1-19.5-20.1H52.4h-7.1H29.8
					c-10.8,0-19.5,6.8-19.5,20.1v7.3l12.5,0c-0.6,9.1-1.6,18.8,4.7,29c0,0,8.1,1.8,21.6,1.8c13.5,0,21.8-1.8,21.8-1.8
					c6.3-10.2,6-22.2,4.7-29l11.9,0V103z"/>
			</defs>
			<clipPath id="SVGID_00000111154403218680869610000013530603690705550523_">
				<use xlink:href="#SVGID_00000107575107896349628810000010516726374055893378_"  style="overflow:visible;"/>
			</clipPath>
			<path style="clip-path:url(#SVGID_00000111154403218680869610000013530603690705550523_);fill:#F1F2F2;" d="M87.6,91.4
				c-3.6-4.3-14.3,1.8-14.3,1.8c-7.5,3.3-15.5,5.3-24.3,5.2c-7.5-0.1-15.6-1.7-24.3-5.2c0,0-10.1-4.9-14.3-1.2
				c-4.8,4.2-2.7,14.8,0,8.7c2.4-5.7,14.3-0.2,14.3-0.2s10.1,4.5,22.2,5c0.3,0,1.1,0,2.1,0c1.1,0,2.3,0,2.6,0c12.1,0,21.8-5,21.8-5
				s11.8-5.2,14.6,0.1C90.9,106.5,91.7,96.3,87.6,91.4"/>
		</g>
	</g>
	<g>
		<g>
			<defs>
				<path id="SVGID_00000075856630743761736510000010539261946937492124_" d="M87.5,103c0-13.3-8.7-20.1-19.5-20.1H52.4h-7.1H29.8
					c-10.8,0-19.5,6.8-19.5,20.1v7.3l12.5,0c-0.6,9.1-1.6,18.8,4.7,29c0,0,8.1,1.8,21.6,1.8c13.5,0,21.8-1.8,21.8-1.8
					c6.3-10.2,6-22.2,4.7-29l11.9,0V103z"/>
			</defs>
			<clipPath id="SVGID_00000118372357088116458720000007185239130007731108_">
				<use xlink:href="#SVGID_00000075856630743761736510000010539261946937492124_"  style="overflow:visible;"/>
			</clipPath>
		</g>
	</g>
</g>
</svg>
