<svg width="164" height="324" viewBox="0 0 164 324" fill="none" xmlns="http://www.w3.org/2000/svg">
<path fill-rule="evenodd" clip-rule="evenodd" d="M131.259 316.539C131.445 312.076 128.73 308.275 123.04 308.027C121.032 308.027 118.652 308.027 115.602 308.027L130.069 268.771H46.6933L61.1594 308.027C57.8497 308.027 55.0977 307.655 52.9036 307.655C51.7792 307.386 50.6143 307.412 49.5001 307.728C48.3859 308.045 47.3529 308.644 46.4824 309.479C45.6119 310.314 44.9274 311.363 44.483 312.541C44.0385 313.72 43.8463 314.997 43.921 316.272C43.9957 317.547 44.3356 318.785 44.9138 319.89C45.492 320.995 46.2929 321.935 47.2535 322.638C48.2141 323.34 49.3081 323.786 50.4498 323.939C51.5915 324.093 52.7497 323.95 53.8333 323.522C63.8229 321.767 73.6804 319.184 83.3233 315.795C84.5877 315.382 85.3315 314.968 85.7034 313.522C86.0753 312.076 87.8976 305.258 87.8976 305.258C87.8976 305.258 89.7197 312.2 90.0915 313.192C90.2277 313.798 90.5298 314.342 90.9561 314.749C91.3824 315.156 91.912 315.406 92.4716 315.464C102.205 318.843 112.149 321.426 122.222 323.191C123.239 323.512 124.306 323.58 125.349 323.391C126.392 323.202 127.385 322.761 128.258 322.099C129.13 321.437 129.861 320.569 130.399 319.559C130.937 318.548 131.269 317.418 131.37 316.249" fill="#262626"/>
<path fill-rule="evenodd" clip-rule="evenodd" d="M158.372 207.492C158.372 180.675 142.455 166.832 122.857 166.832H53.4646C33.8666 166.832 17.9502 180.675 17.9502 207.492V222.368H40.6347C39.5563 240.88 37.7341 260.383 49.2624 281.168C62.1282 283.781 75.1954 284.971 88.2725 284.721C101.598 284.925 114.91 283.708 128.026 281.085C139.555 260.424 138.997 236.128 136.617 222.285H158.223L158.372 207.492Z" fill="#BD234E"/>
<path fill-rule="evenodd" clip-rule="evenodd" d="M151.789 89.3127C152.719 81.5857 150.488 75.47 145.914 74.6436C144.851 74.4041 143.747 74.626 142.827 75.2635C128.547 41.2976 94.6686 24.3973 64.2861 37.0415C33.9036 49.6857 17.6152 87.4946 25.6478 124.105C24.6457 124.406 23.7504 125.041 23.0818 125.923C20.144 130.055 21.7802 136.295 26.8006 141.377C31.821 146.46 33.197 156.831 35.9489 159.682C36.9472 160.753 38.2804 161.351 39.6677 161.351C41.055 161.351 42.3882 160.753 43.3865 159.682C51.7201 169.102 62.2598 175.743 73.8132 178.854C85.3667 181.965 97.473 181.421 108.763 177.285C133.828 167.699 148.108 143.113 149.67 115.634C150.975 115.552 152.211 114.952 153.152 113.943C154.094 112.935 154.679 111.585 154.802 110.138C155.322 106.006 150.562 96.9157 151.678 89.1887" fill="#FAC1A2"/>
<path fill-rule="evenodd" clip-rule="evenodd" d="M58.5221 121.255C64.3978 117.371 68.2282 120.222 67.8564 119.23C66.6139 117.16 64.6847 115.719 62.4899 115.224C60.2952 114.728 58.0131 115.218 56.1421 116.585C54.2172 117.843 52.7749 119.843 52.0894 122.204C51.4038 124.565 51.5227 127.124 52.4233 129.395C52.758 130.387 53.13 124.932 58.6338 121.131" fill="#563937"/>
<path d="M58.5221 121.255C64.3978 117.371 68.2282 120.222 67.8564 119.23C66.6139 117.16 64.6847 115.719 62.4899 115.224C60.2952 114.728 58.0131 115.218 56.1421 116.585C54.2172 117.843 52.7749 119.843 52.0894 122.204C51.4038 124.565 51.5227 127.124 52.4233 129.395C52.758 130.387 53.13 124.932 58.6338 121.131" stroke="#563937" stroke-width="0.103189"/>
<path fill-rule="evenodd" clip-rule="evenodd" d="M115.156 97.6604C118.363 97.0547 121.66 97.6968 124.49 99.4785C123.984 97.0713 122.65 94.9799 120.773 93.6517C118.897 92.3235 116.627 91.864 114.45 92.3715C112.272 92.8455 110.321 94.176 108.955 96.119C107.589 98.0619 106.899 100.487 107.012 102.95C109.222 100.324 112.082 98.4841 115.231 97.6604" fill="#563937"/>
<path d="M115.156 97.6604C118.363 97.0547 121.66 97.6968 124.49 99.4785C123.984 97.0713 122.65 94.9799 120.773 93.6517C118.897 92.3235 116.627 91.864 114.45 92.3715C112.272 92.8455 110.321 94.176 108.955 96.119C107.589 98.0619 106.899 100.487 107.012 102.95C109.222 100.324 112.082 98.4841 115.231 97.6604" stroke="#563937" stroke-width="0.103189"/>
<path fill-rule="evenodd" clip-rule="evenodd" d="M144.46 80.76C141.792 69.3091 136.492 58.8248 129.08 50.3351C121.667 41.8454 112.397 35.6416 102.177 32.3316C76.7032 24.3979 53.8326 36.4637 38.9574 56.5458C17.3512 68.9421 13.7069 99.0653 27.4292 130.593C28.1044 123.958 29.1476 117.375 30.5529 110.883C32.1892 104.768 33.6396 115.552 33.6396 115.552C33.6396 115.552 52.6799 98.4454 49.7792 78.3633C56.7681 82.5561 64.5275 84.9164 72.4638 85.2639C85.6155 86.0296 98.7279 83.0872 110.581 76.7104C108.637 72.5123 105.897 68.8328 102.549 65.9256C101.805 65.3058 100.355 64.4794 103.255 65.7191C109.131 68.157 121.217 72.4131 129.622 70.3884C129.156 67.9942 128.419 65.6754 127.428 63.4877C133.519 68.7967 139.272 74.568 144.645 80.76" fill="#563937"/>
<path fill-rule="evenodd" clip-rule="evenodd" d="M38.438 39.893L28.7321 25.4306C35.6717 21.3407 42.3447 16.7151 48.702 11.588C49.422 11.1283 50.0442 10.5012 50.5259 9.74957C51.0076 8.9979 51.3375 8.13941 51.4929 7.23296C51.6483 6.3265 51.6256 5.39347 51.4264 4.49768C51.2271 3.60188 50.8558 2.76447 50.3382 2.04285C49.8048 1.38289 49.1493 0.858867 48.4166 0.506545C47.684 0.154222 46.8914 -0.0181148 46.0933 0.0015057C45.2952 0.0211262 44.5104 0.23218 43.7924 0.620163C43.0745 1.00814 42.4404 1.564 41.9337 2.24953C36.0271 9.10939 30.583 16.443 25.6454 24.191C17.7783 28.4195 10.186 33.252 2.92362 38.6534C2.21715 39.098 1.60314 39.7033 1.12187 40.4298C0.640599 41.1564 0.302921 41.9878 0.130889 42.8694C-0.0411436 43.751 -0.0436245 44.6631 0.123626 45.5459C0.290876 46.4287 0.624118 47.2622 1.10144 47.9919C1.60677 48.6902 2.24652 49.2537 2.97378 49.6408C3.70103 50.028 4.49729 50.229 5.3037 50.229C6.11011 50.229 6.90614 50.028 7.63339 49.6408C8.36065 49.2537 9.00062 48.6902 9.50595 47.9919C15.1943 41.7916 20.4644 35.1348 25.2736 28.0752L34.9796 42.5376C34.4218 43.1161 33.6781 43.7358 32.9715 44.3556C24.8222 52.4093 19.0728 63.0293 16.4887 74.8026C13.9045 86.576 14.608 98.9448 18.5054 110.263C19.026 111.668 19.9557 111.089 20.3275 110.263C43.6444 54.5208 91.9887 36.794 104 32.9511C105.637 32.3313 105.823 31.7527 104.558 30.9263C95.9307 25.4306 69.1925 13.4475 38.438 39.893Z" fill="#BD234E"/>
<path fill-rule="evenodd" clip-rule="evenodd" d="M37.7339 42.1249C34.5513 48.2177 32.7224 55.0661 32.3991 62.1016C32.0757 69.1371 33.2671 76.1569 35.8745 82.5782C46.8019 67.8296 60.17 55.5426 75.2567 46.381C75.2567 46.1744 61.1623 31.3401 37.7339 42.2489" fill="#F2F2F2"/>
<path fill-rule="evenodd" clip-rule="evenodd" d="M115.719 119.437C118.217 126.111 118.274 133.605 115.878 140.326C113.483 147.046 108.823 152.464 102.889 155.427C99.9659 156.828 96.8189 157.561 93.6356 157.58C90.4524 157.599 87.2982 156.905 84.3616 155.54C81.425 154.175 78.7662 152.166 76.544 149.633C74.3218 147.101 72.5816 144.096 71.4277 140.8L115.719 119.437Z" fill="#F38970"/>
<path fill-rule="evenodd" clip-rule="evenodd" d="M76.333 138.32L110.955 121.792C110.955 121.792 111.327 126.668 111.513 127.288C111.505 127.721 111.375 128.14 111.141 128.486C102.691 136.996 91.9412 142.155 80.5725 143.155C80.3985 143.218 80.2101 143.211 80.0402 143.136C79.8703 143.06 79.7296 142.921 79.6428 142.742C78.4329 141.475 77.3253 140.092 76.333 138.61" fill="#F2F2F2"/>
<path fill-rule="evenodd" clip-rule="evenodd" d="M43.6445 221.955C72.4716 231.617 103.214 231.689 132.078 222.162L131.185 236.417C117.377 240.486 103.15 242.528 88.8649 242.492C74.1501 242.446 59.4846 240.603 45.1321 236.996L43.6445 221.955Z" fill="#F2F2F2"/>
<path fill-rule="evenodd" clip-rule="evenodd" d="M41.749 253.07C72.4391 261.703 104.625 261.29 135.128 251.871L132.19 267.325C117.727 270.543 103.021 272.218 88.2711 272.325C73.5398 272.345 58.834 270.962 44.315 268.193L41.749 253.07Z" fill="#F2F2F2"/>
<path fill-rule="evenodd" clip-rule="evenodd" d="M21.5933 222.74C21.74 237.114 23.8464 251.381 27.8408 265.053C28.7333 268.318 31.1132 273.317 33.3073 266.665C33.3073 266.665 34.237 271.541 35.8733 272.367C36.803 272.78 39.369 272.16 39.369 268.235C39.369 268.235 41.9351 275.962 44.8729 274.516C47.253 273.111 44.687 262.533 44.687 262.533C44.687 262.533 49.4471 267.822 51.6412 265.384C52.7196 264.144 48.5173 255.219 46.881 248.07C45.3534 239.689 44.3717 231.196 43.9432 222.658C43.7573 218.526 21.6305 217.782 21.6305 222.865" fill="#FAC1A2"/>
<path fill-rule="evenodd" clip-rule="evenodd" d="M154.351 222.74C154.204 237.114 152.098 251.38 148.103 265.053C147.211 268.317 144.831 273.317 142.637 266.664C142.637 266.664 141.707 271.54 140.071 272.367C139.141 272.78 136.575 272.16 136.575 268.234C136.575 268.234 134.009 275.962 131.109 274.515C128.208 273.069 131.109 262.532 131.109 262.532C131.109 262.532 126.349 267.821 124.154 265.383C123.076 264.144 126.906 256.003 128.728 248.855C130.223 240.113 131.266 231.283 131.852 222.409C132.224 218.525 154.165 217.74 154.165 222.823" fill="#FAC1A2"/>
<path fill-rule="evenodd" clip-rule="evenodd" d="M43.9413 222.161C43.5254 216.858 43.4259 211.53 43.6438 206.212C43.6438 205.385 43.6437 204.972 43.0859 206.418C41.9262 210.851 41.3132 215.438 41.2637 220.054C43.4578 221.046 43.8297 222.079 43.8297 222.079" fill="#7F161B"/>
<path fill-rule="evenodd" clip-rule="evenodd" d="M132.004 222.161C132.318 216.877 132.318 211.577 132.004 206.294C132.004 205.467 132.19 205.054 132.562 206.5C133.64 210.963 135.128 219.929 134.384 220.343C132.19 221.128 131.818 222.161 131.818 222.161" fill="#7F161B"/>
<path fill-rule="evenodd" clip-rule="evenodd" d="M158.556 184.105C151.974 175.345 132.524 187.782 132.524 187.782C118.633 194.791 103.527 198.332 88.2706 198.154C73.0439 197.895 58.0053 194.374 43.9799 187.782C43.9799 187.782 25.3859 177.824 17.9483 185.344C9.35792 193.609 13.1883 215.219 17.9483 202.823C22.3365 191.253 43.9799 202.41 43.9799 202.41C56.8527 208.315 70.5332 211.752 84.4401 212.575H92.8819C106.626 212.412 120.175 208.944 132.599 202.41C132.599 202.41 154.391 191.832 159.337 202.41C164.989 214.434 166.291 193.691 158.779 183.898" fill="#F2F2F2"/>
</svg>
