<?xml version="1.0" encoding="UTF-8"?>
<svg width="128pt" height="128pt" version="1.1" viewBox="0 0 128 128" xmlns="http://www.w3.org/2000/svg">
 <path d="m119.22 62.969c-0.12891-0.3125-0.31641-0.59375-0.57031-0.85156l-16.516-16.508c-0.99609-0.99609-2.7305-1-3.7305 0-1.0195 1.0273-1.0195 2.6953 0.003906 3.7266l12.012 12.012h-43.785v-43.785l12.008 12.004c0.99609 1 2.75 0.99609 3.7266 0.007813 0.50391-0.5 0.77734-1.1641 0.77734-1.8711s-0.27734-1.3711-0.77344-1.8633l-16.5-16.496c-0.91016-0.92188-2.5508-0.96875-3.4609-0.23828-0.058594 0.039062-0.11328 0.082031-0.16406 0.125-0.039063 0.03125-0.078125 0.066406-0.11328 0.10547l-16.504 16.508c-0.5 0.49609-0.77344 1.1602-0.77344 1.8633 0 0.70703 0.27344 1.3672 0.75781 1.8516 0.98438 1 2.75 1.0078 3.7422 0.015625l12.012-12.012v43.785l-43.785-0.003906 12.008-12.008c0.5-0.49609 0.77344-1.1602 0.77344-1.8633s-0.27344-1.3672-0.77344-1.8672c-0.99609-0.99609-2.7305-0.99609-3.7266 0l-16.512 16.512c-0.25 0.25-0.44141 0.53906-0.55469 0.81641-0.10547 0.23828-0.14844 0.45703-0.17578 0.62891-0.027344 0.14062-0.042969 0.29297-0.042969 0.42188 0 0.34766 0.070313 0.6875 0.21484 1.043 0.035156 0.085937 0.085937 0.17578 0.13672 0.26172 0.089843 0.16016 0.21875 0.35938 0.41797 0.55859l16.516 16.512c0.49609 0.49609 1.1602 0.77344 1.8633 0.77344 0.70313 0 1.3633-0.27344 1.8672-0.77344 1.0234-1.0273 1.0234-2.6953 0-3.7266l-12.016-12.012h43.785v43.785l-12.004-12.004c-0.99609-1.0039-2.7461-1-3.7344-0.003906-0.5 0.5-0.77344 1.1641-0.77344 1.8672s0.27734 1.3672 0.77344 1.8594l16.496 16.496c0.24219 0.24609 0.52734 0.44141 0.85547 0.57812 0.32422 0.13672 0.67188 0.20703 1.0234 0.20703s0.69531-0.070312 1.0234-0.20703c0.3125-0.13281 0.59766-0.32422 0.83984-0.56641l16.508-16.508c0.5-0.49609 0.77734-1.1602 0.77734-1.8633s-0.27344-1.3672-0.76563-1.8594c-0.99609-1.0078-2.7617-0.99219-3.7344-0.007813l-12.012 12.012-0.003907-43.789h43.785l-12.016 12.016c-1.0195 1.0234-1.0195 2.6953 0.003906 3.7227 0.49609 0.49609 1.1602 0.77344 1.8633 0.77344s1.3672-0.27344 1.8633-0.77344l16.512-16.512c0.24609-0.24609 0.44531-0.54688 0.57422-0.86719 0.12891-0.32031 0.19531-0.66016 0.19531-0.99609 0.007813-0.35156-0.066406-0.70703-0.19531-1.0117z" fill="#0b5272"/>
</svg>
