<?xml version="1.0" encoding="UTF-8"?>
<svg width="410px" height="103px" viewBox="0 0 410 103" version="1.1" xmlns="http://www.w3.org/2000/svg" xmlns:xlink="http://www.w3.org/1999/xlink">
    <!-- Generator: Sketch 49.3 (51167) - http://www.bohemiancoding.com/sketch -->
    <title>Brand/Logo/Image+Wordmark</title>
    <desc>Created with Sketch.</desc>
    <defs>
        <polygon id="path-1" points="0 0.232 91.457 0.232 91.457 102.4362 0 102.4362"></polygon>
        <polygon id="path-3" points="0 0.232 91.457 0.232 91.457 102.4362 0 102.4362"></polygon>
        <path d="M0,51.332 C0,79.555 20.473,102.433 45.731,102.433 C70.985,102.433 91.457,79.555 91.457,51.332 C91.457,23.11 70.985,0.232 45.731,0.232 C20.473,0.232 0,23.11 0,51.332 Z" id="path-5"></path>
        <path d="M0,51.332 C0,79.555 20.473,102.433 45.731,102.433 C70.985,102.433 91.457,79.555 91.457,51.332 C91.457,23.11 70.985,0.232 45.731,0.232 C20.473,0.232 0,23.11 0,51.332 Z" id="path-7"></path>
        <path d="M0,51.332 C0,79.555 20.473,102.433 45.731,102.433 C70.985,102.433 91.457,79.555 91.457,51.332 C91.457,23.11 70.985,0.232 45.731,0.232 C20.473,0.232 0,23.11 0,51.332" id="path-9"></path>
        <path d="M0,51.332 C0,79.555 20.473,102.433 45.731,102.433 C70.985,102.433 91.457,79.555 91.457,51.332 C91.457,23.11 70.985,0.232 45.731,0.232 C20.473,0.232 0,23.11 0,51.332 Z" id="path-11"></path>
        <path d="M0,51.332 C0,79.555 20.473,102.433 45.731,102.433 C70.985,102.433 91.457,79.555 91.457,51.332 C91.457,23.11 70.985,0.232 45.731,0.232 C20.473,0.232 0,23.11 0,51.332 Z" id="path-13"></path>
        <path d="M0,51.332 C0,79.555 20.473,102.433 45.731,102.433 C70.985,102.433 91.457,79.555 91.457,51.332 C91.457,23.11 70.985,0.232 45.731,0.232 C20.473,0.232 0,23.11 0,51.332" id="path-15"></path>
        <path d="M0,51.332 C0,79.555 20.473,102.433 45.731,102.433 C70.985,102.433 91.457,79.555 91.457,51.332 C91.457,23.11 70.985,0.232 45.731,0.232 C20.473,0.232 0,23.11 0,51.332 Z" id="path-17"></path>
        <path d="M0,51.332 C0,79.555 20.473,102.433 45.731,102.433 C70.985,102.433 91.457,79.555 91.457,51.332 C91.457,23.11 70.985,0.232 45.731,0.232 C20.473,0.232 0,23.11 0,51.332" id="path-19"></path>
        <path d="M0,51.332 C0,79.555 20.473,102.433 45.731,102.433 C70.985,102.433 91.457,79.555 91.457,51.332 C91.457,23.11 70.985,0.232 45.731,0.232 C20.473,0.232 0,23.11 0,51.332 Z" id="path-21"></path>
        <path d="M0,51.332 C0,79.555 20.473,102.433 45.731,102.433 C70.985,102.433 91.457,79.555 91.457,51.332 C91.457,23.11 70.985,0.232 45.731,0.232 C20.473,0.232 0,23.11 0,51.332" id="path-23"></path>
        <path d="M0,51.332 C0,79.555 20.473,102.433 45.731,102.433 C70.985,102.433 91.457,79.555 91.457,51.332 C91.457,23.11 70.985,0.232 45.731,0.232 C20.473,0.232 0,23.11 0,51.332" id="path-25"></path>
        <path d="M0,51.332 C0,79.555 20.473,102.433 45.731,102.433 C70.985,102.433 91.457,79.555 91.457,51.332 C91.457,23.11 70.985,0.232 45.731,0.232 C20.473,0.232 0,23.11 0,51.332" id="path-27"></path>
        <path d="M0,51.332 C0,79.555 20.473,102.433 45.731,102.433 C70.985,102.433 91.457,79.555 91.457,51.332 C91.457,23.11 70.985,0.232 45.731,0.232 C20.473,0.232 0,23.11 0,51.332" id="path-29"></path>
        <path d="M0,51.332 C0,79.555 20.473,102.433 45.731,102.433 C70.985,102.433 91.457,79.555 91.457,51.332 C91.457,23.11 70.985,0.232 45.731,0.232 C20.473,0.232 0,23.11 0,51.332" id="path-31"></path>
        <path d="M0,51.332 C0,79.555 20.473,102.433 45.731,102.433 C70.985,102.433 91.457,79.555 91.457,51.332 C91.457,23.11 70.985,0.232 45.731,0.232 C20.473,0.232 0,23.11 0,51.332" id="path-33"></path>
        <path d="M0,51.332 C0,79.555 20.473,102.433 45.731,102.433 C70.985,102.433 91.457,79.555 91.457,51.332 C91.457,23.11 70.985,0.232 45.731,0.232 C20.473,0.232 0,23.11 0,51.332 Z" id="path-35"></path>
        <path d="M0,51.332 C0,79.555 20.473,102.433 45.731,102.433 C70.985,102.433 91.457,79.555 91.457,51.332 C91.457,23.11 70.985,0.232 45.731,0.232 C20.473,0.232 0,23.11 0,51.332" id="path-37"></path>
        <path d="M0,51.332 C0,79.555 20.473,102.433 45.731,102.433 C70.985,102.433 91.457,79.555 91.457,51.332 C91.457,23.11 70.985,0.232 45.731,0.232 C20.473,0.232 0,23.11 0,51.332 Z" id="path-39"></path>
        <path d="M32.303,0.171 L26.947,0.171 L15.199,0.171 C8.039,0.171 2.064,3.885 0.698,11.817 C8.597,19.075 18.708,23.433 29.731,23.433 C40.665,23.433 50.704,19.143 58.573,11.987 C57.247,4.051 51.25,0.171 44.05,0.171" id="path-41"></path>
        <polygon id="path-43" points="0.5383 0.8649 24.151 0.8649 24.151 20.3759 0.5383 20.3759"></polygon>
    </defs>
    <g id="Symbols" stroke="none" stroke-width="1" fill="none" fill-rule="evenodd">
        <g id="Brand/Logo/Image+Wordmark" transform="translate(0.000000, -1.000000)">
            <g>
                <g id="Group-7" transform="translate(0.000000, 0.768000)">
                    <g id="Group-3">
                        <mask id="mask-2" fill="white">
                            <use xlink:href="#path-1"></use>
                        </mask>
                        <g id="Clip-2"></g>
                        <path d="M91.457,51.3322 C91.457,79.5552 70.984,102.4362 45.73,102.4362 C20.474,102.4362 0,79.5552 0,51.3322 C0,23.1092 20.474,0.2312 45.73,0.2312 C70.984,0.2312 91.457,23.1092 91.457,51.3322" id="Fill-1" fill="#21B2DD" mask="url(#mask-2)"></path>
                    </g>
                    <g id="Group-6">
                        <mask id="mask-4" fill="white">
                            <use xlink:href="#path-3"></use>
                        </mask>
                        <g id="Clip-5"></g>
                        <path d="M91.457,51.3322 C91.457,79.5552 70.984,102.4362 45.73,102.4362 C20.474,102.4362 0,79.5552 0,51.3322 C0,23.1092 20.474,0.2312 45.73,0.2312 C70.984,0.2312 91.457,23.1092 91.457,51.3322" id="Fill-4" fill="#21B2DD" mask="url(#mask-4)"></path>
                    </g>
                </g>
                <g id="Group-62" transform="translate(0.000000, 0.768000)">
                    <g id="Group-10">
                        <mask id="mask-6" fill="white">
                            <use xlink:href="#path-5"></use>
                        </mask>
                        <g id="Clip-9"></g>
                        <path d="M74.8447,94.424 C74.8447,84.337 68.2217,79.171 60.0517,79.171 L48.3027,79.171 L42.9477,79.171 L31.1997,79.171 C23.0297,79.171 16.4057,84.337 16.4057,94.424 L16.4057,99.99 L25.8607,100.024 C25.4107,106.938 24.6457,114.283 29.4237,122.024 C29.4237,122.024 35.5307,123.399 45.7517,123.399 C55.9727,123.399 62.2707,122.024 62.2707,122.024 C67.0467,114.283 66.8397,105.208 65.8337,100.024 L74.8447,99.99 L74.8447,94.424 Z" id="Fill-8" fill="#C6203B" mask="url(#mask-6)"></path>
                    </g>
                    <g id="Group-13">
                        <mask id="mask-8" fill="white">
                            <use xlink:href="#path-7"></use>
                        </mask>
                        <g id="Clip-12"></g>
                        <polygon id="Fill-11" fill="#C6203B" mask="url(#mask-8)" points="28.1181 35.8298 26.6521 36.9928 19.1961 27.0438 20.6621 25.8798"></polygon>
                    </g>
                    <g id="Group-16">
                        <mask id="mask-10" fill="white">
                            <use xlink:href="#path-9"></use>
                        </mask>
                        <g id="Clip-15"></g>
                        <path d="M69.5156,47.6935 C74.6356,62.2065 68.7026,78.1725 54.2706,83.1735 C40.8776,87.8135 25.5986,80.6095 20.4756,66.0975 C15.3506,51.5855 22.1776,35.7005 35.7196,30.6175 C49.2606,25.5365 64.3916,33.1815 69.5156,47.6935" id="Fill-14" fill="#EBBF9F" mask="url(#mask-10)"></path>
                    </g>
                    <g id="Group-19">
                        <mask id="mask-12" fill="white">
                            <use xlink:href="#path-11"></use>
                        </mask>
                        <g id="Clip-18"></g>
                        <path d="M21.6387,63.6496 C21.6387,63.6496 19.8357,62.3496 18.5807,63.8736 C17.3257,65.3956 18.0417,67.7186 20.1607,69.6906 C22.2787,71.6646 22.8547,75.5046 23.9997,76.5466 C25.9747,78.3436 27.8437,75.8406 28.7917,75.4186 C29.7397,74.9976 25.9767,67.2286 25.9767,67.2286 L21.6387,63.6496 Z" id="Fill-17" fill="#EBBF9F" mask="url(#mask-12)"></path>
                    </g>
                    <g id="Group-22">
                        <mask id="mask-14" fill="white">
                            <use xlink:href="#path-13"></use>
                        </mask>
                        <g id="Clip-21"></g>
                        <path d="M67.1816,46.5573 C67.1816,46.5573 67.7526,44.3683 69.6646,44.7023 C71.5746,45.0383 72.4726,47.2913 72.0816,50.2063 C71.6886,53.1213 73.6416,56.4453 73.4126,58.0023 C73.0216,60.6883 70.0286,60.0103 69.0396,60.3153 C68.0486,60.6203 66.0896,52.1743 66.0896,52.1743 L67.1816,46.5573 Z" id="Fill-20" fill="#EBBF9F" mask="url(#mask-14)"></path>
                    </g>
                    <g id="Group-25">
                        <mask id="mask-16" fill="white">
                            <use xlink:href="#path-15"></use>
                        </mask>
                        <g id="Clip-24"></g>
                        <path d="M33.249,62.1945 C35.706,60.7315 37.309,61.7795 37.12,61.4395 C36.353,60.0705 34.262,59.2755 32.276,60.4585 C30.479,61.5265 29.914,63.9045 30.679,65.2745 C30.869,65.6135 30.98,63.5455 33.249,62.1945" id="Fill-23" fill="#503A39" mask="url(#mask-16)"></path>
                    </g>
                    <g id="Group-28">
                        <mask id="mask-18" fill="white">
                            <use xlink:href="#path-17"></use>
                        </mask>
                        <g id="Clip-27"></g>
                        <path d="M33.249,62.1945 C35.706,60.7315 37.309,61.7795 37.12,61.4395 C36.353,60.0705 34.262,59.2755 32.276,60.4585 C30.479,61.5265 29.914,63.9045 30.679,65.2745 C30.869,65.6135 30.98,63.5455 33.249,62.1945 Z" id="Stroke-26" stroke="#503A39" stroke-width="0.181" stroke-linecap="round" stroke-linejoin="round" mask="url(#mask-18)"></path>
                    </g>
                    <g id="Group-31">
                        <mask id="mask-20" fill="white">
                            <use xlink:href="#path-19"></use>
                        </mask>
                        <g id="Clip-30"></g>
                        <path d="M56.8457,53.339 C59.6427,52.83 60.7977,54.382 60.7337,53.995 C60.4677,52.439 58.7647,50.953 56.5077,51.363 C54.4647,51.735 53.1407,53.77 53.4087,55.328 C53.4757,55.713 54.2647,53.808 56.8457,53.339" id="Fill-29" fill="#503A39" mask="url(#mask-20)"></path>
                    </g>
                    <g id="Group-34">
                        <mask id="mask-22" fill="white">
                            <use xlink:href="#path-21"></use>
                        </mask>
                        <g id="Clip-33"></g>
                        <path d="M56.8457,53.339 C59.6427,52.83 60.7977,54.382 60.7337,53.995 C60.4677,52.439 58.7647,50.953 56.5077,51.363 C54.4647,51.735 53.1407,53.77 53.4087,55.328 C53.4757,55.713 54.2647,53.808 56.8457,53.339 Z" id="Stroke-32" stroke="#503A39" stroke-width="0.181" stroke-linecap="round" stroke-linejoin="round" mask="url(#mask-22)"></path>
                    </g>
                    <g id="Group-37">
                        <mask id="mask-24" fill="white">
                            <use xlink:href="#path-23"></use>
                        </mask>
                        <g id="Clip-36"></g>
                        <path d="M24.2754,39.0832 C24.2754,39.0832 25.0054,47.7142 39.0584,48.7522 C47.5904,49.3842 54.9154,45.5082 54.9154,45.5082 C54.9154,45.5082 53.6404,42.9472 51.5394,41.4942 C51.2154,41.2672 50.6114,40.9892 51.8094,41.4412 C54.2764,42.3702 59.3084,43.9662 62.7984,43.2252 C62.7984,43.2252 62.1774,40.0512 60.7614,39.4252 C57.0914,37.7992 63.6824,41.0672 69.0564,46.9982 C69.0564,46.9982 66.1124,32.9562 51.5004,28.8672 C40.4004,25.7622 30.3974,30.8692 24.2754,39.0832" id="Fill-35" fill="#503A39" mask="url(#mask-24)"></path>
                    </g>
                    <g id="Group-40">
                        <mask id="mask-26" fill="white">
                            <use xlink:href="#path-25"></use>
                        </mask>
                        <g id="Clip-39"></g>
                        <path d="M25.916,37.5817 C16.259,41.9227 14.47,53.5227 20.4,65.6697 C20.4,65.6697 21.043,60.5857 21.713,58.3047 C22.384,56.0237 22.978,60.0287 22.978,60.0287 C22.978,60.0287 34.369,50.7947 27.691,41.6337 C25.611,38.7807 25.916,37.5817 25.916,37.5817" id="Fill-38" fill="#503A39" mask="url(#mask-26)"></path>
                    </g>
                    <g id="Group-43">
                        <mask id="mask-28" fill="white">
                            <use xlink:href="#path-27"></use>
                        </mask>
                        <g id="Clip-42"></g>
                        <path d="M52.2344,29.1554 C47.2974,30.5244 27.1144,37.1644 17.4454,58.0554 C17.3254,58.3154 16.9284,58.5594 16.6954,58.0404 C15.3424,55.0374 12.3434,42.9354 22.7584,33.5674 C36.4764,21.2274 48.6564,26.1784 52.4534,28.4024 C52.9984,28.7214 52.9324,28.9624 52.2344,29.1554" id="Fill-41" fill="#C6203B" mask="url(#mask-28)"></path>
                    </g>
                    <g id="Group-46">
                        <mask id="mask-30" fill="white">
                            <use xlink:href="#path-29"></use>
                        </mask>
                        <g id="Clip-45"></g>
                        <path d="M24.6597,32.529 C24.6597,32.529 20.1577,39.376 23.8777,47.649 C23.8777,47.649 29.8227,39.782 40.2767,34.093 C40.2767,34.093 34.3847,28.521 24.6597,32.529" id="Fill-44" fill="#F1F1F2" mask="url(#mask-30)"></path>
                    </g>
                    <g id="Group-49">
                        <mask id="mask-32" fill="white">
                            <use xlink:href="#path-31"></use>
                        </mask>
                        <g id="Clip-48"></g>
                        <path d="M18.4385,27.6652 C19.9855,26.8422 26.9125,23.1142 29.3005,21.1172 C30.6945,19.9512 30.7315,18.5512 29.9665,17.5752 L29.9685,17.5742 C29.9665,17.5732 29.9665,17.5722 29.9645,17.5702 C29.9645,17.5682 29.9625,17.5672 29.9625,17.5662 L29.9605,17.5672 C29.1515,16.6292 27.8075,16.4362 26.4635,17.6602 C24.1605,19.7542 19.4645,26.1632 18.4105,27.6152 C18.3855,27.6472 18.4065,27.6822 18.4385,27.6652" id="Fill-47" fill="#C6203B" mask="url(#mask-32)"></path>
                    </g>
                    <g id="Group-52">
                        <mask id="mask-34" fill="white">
                            <use xlink:href="#path-33"></use>
                        </mask>
                        <g id="Clip-51"></g>
                        <path d="M21.2886,25.172 C20.2076,26.577 15.3196,32.864 12.9586,34.893 C11.5786,36.078 10.2406,35.845 9.4586,34.883 L9.4566,34.884 C9.4566,34.883 9.4566,34.882 9.4546,34.881 C9.4536,34.879 9.4506,34.878 9.4506,34.877 L9.4506,34.875 C8.7166,33.876 8.7916,32.479 10.2166,31.355 C12.6556,29.431 19.6606,25.917 21.2476,25.132 C21.2826,25.115 21.3096,25.143 21.2886,25.172" id="Fill-50" fill="#C6203B" mask="url(#mask-34)"></path>
                    </g>
                    <g id="Group-55">
                        <mask id="mask-36" fill="white">
                            <use xlink:href="#path-35"></use>
                        </mask>
                        <g id="Clip-54"></g>
                        <path d="M57.1396,61.4718 C59.2736,66.7118 56.8876,72.7428 51.8036,74.9468 C46.7236,77.1488 40.8716,74.6858 38.7366,69.4468 L57.1396,61.4718 Z" id="Fill-53" fill="#E9886D" mask="url(#mask-36)"></path>
                    </g>
                    <g id="Group-58">
                        <mask id="mask-38" fill="white">
                            <use xlink:href="#path-37"></use>
                        </mask>
                        <g id="Clip-57"></g>
                        <path d="M40.7431,68.5763 L55.1331,62.3403 C55.1331,62.3403 55.3141,64.1973 55.3291,64.3863 C55.3451,64.5753 55.2911,64.7293 55.1621,64.8563 C54.2261,65.7773 49.8491,69.6503 42.4221,70.3543 C42.3281,70.3633 42.1641,70.3933 42.0131,70.2293 C41.8631,70.0663 40.7431,68.5763 40.7431,68.5763" id="Fill-56" fill="#F1F1F2" mask="url(#mask-38)"></path>
                    </g>
                    <g id="Group-61">
                        <mask id="mask-40" fill="white">
                            <use xlink:href="#path-39"></use>
                        </mask>
                        <g id="Clip-60"></g>
                        <path d="M27.126,99.8517 C27.126,99.8517 43.646,105.8477 63.881,99.9337 L63.504,105.2907 C63.504,105.2907 55.922,107.6127 45.906,107.6127 C35.891,107.6127 27.709,105.5387 27.709,105.5387 L27.126,99.8517 Z" id="Fill-59" fill="#F1F1F2" mask="url(#mask-40)"></path>
                    </g>
                </g>
                <g id="Group-65" transform="translate(16.000000, 79.768000)">
                    <mask id="mask-42" fill="white">
                        <use xlink:href="#path-41"></use>
                    </mask>
                    <g id="Clip-64"></g>
                    <path d="M58.9658,6.6759 C56.2088,3.4269 48.1108,8.0669 48.1108,8.0669 C42.4038,10.5709 36.3338,12.0459 29.7008,11.9789 C24.0078,11.9199 17.9038,10.7249 11.2648,8.0669 C11.2648,8.0669 3.5998,4.3409 0.4058,7.1329 C-3.1982,10.2859 -1.6062,18.3259 0.3788,13.7109 C2.2288,9.4069 11.2278,13.5489 11.2278,13.5489 C11.2278,13.5489 18.9148,16.9809 28.0658,17.3649 C28.2658,17.3769 28.9218,17.3779 29.6178,17.3749 C30.4628,17.3729 31.3648,17.3649 31.6088,17.3649 C40.7928,17.3649 48.1468,13.5489 48.1468,13.5489 C48.1468,13.5489 57.1008,9.6009 59.1888,13.6459 C61.4918,18.0999 62.0838,10.3399 58.9658,6.6759" id="Fill-63" fill="#F1F1F2" mask="url(#mask-42)"></path>
                </g>
                <g id="Group-167" transform="translate(78.000000, 15.768000)">
                    <path d="M12.6221,42.1203 C15.8891,42.1203 18.5891,39.0803 18.5891,23.7743 C18.5891,8.4663 15.8891,5.4293 12.6221,5.4293 C9.3571,5.4293 6.6591,8.4663 6.6591,23.7743 C6.6591,39.0803 9.3571,42.1203 12.6221,42.1203 M12.6221,4.4153 C18.0251,4.4153 24.3291,11.4503 24.3291,23.7743 C24.3291,36.0993 18.0251,43.1333 12.6221,43.1333 C7.2211,43.1333 0.9171,36.0993 0.9171,23.7743 C0.9171,11.4503 7.2211,4.4153 12.6221,4.4153" id="Fill-66" fill="#FFFFFF"></path>
                    <path d="M33.1738,38.8 C33.2868,39.476 33.5118,39.699 34.0728,39.699 L36.0438,39.699 C36.4938,39.699 36.6638,39.87 36.6638,40.151 C36.6638,40.433 36.4938,40.601 36.0438,40.601 C34.4118,40.601 32.5538,40.489 30.4728,40.489 C28.3338,40.489 26.4788,40.601 24.7878,40.601 C24.3958,40.601 24.2268,40.433 24.2268,40.151 C24.2268,39.87 24.3958,39.699 24.7878,39.699 L26.7578,39.699 C27.3208,39.699 27.6018,39.364 27.7138,38.8 C28.1088,36.999 28.1648,29.628 28.1648,22.649 C28.1648,15.67 28.2208,7.342 27.8288,5.484 C27.7138,4.922 27.4348,4.584 26.8148,4.584 C26.1958,4.584 25.4638,4.641 24.8438,4.641 C24.4488,4.641 24.2818,4.472 24.2818,4.191 C24.2818,3.909 24.4488,3.74 24.8438,3.74 L29.5158,3.74 C32.3848,3.74 33.0618,4.584 33.0618,7.454 C33.0618,9.031 32.9478,16.234 32.9478,23.043 C32.9478,30.471 32.8358,36.717 33.1738,38.8" id="Fill-68" fill="#FFFFFF"></path>
                    <path d="M42.2344,29.0646 C42.2344,39.8126 44.2604,41.3326 46.3434,41.3326 C48.9314,41.3326 51.4074,37.8986 51.4074,28.7826 C51.4074,19.6666 49.2134,15.5016 46.3434,15.5016 C44.3174,15.5016 42.2344,18.0896 42.2344,29.0646 M50.1134,3.4586 C49.4964,3.4586 48.7624,3.5146 48.1434,3.5146 C47.7514,3.5146 47.5824,3.3456 47.5824,3.0646 C47.5824,2.7826 47.7514,2.6146 48.1434,2.6146 L52.8144,2.6146 C55.6844,2.6146 56.3604,3.4586 56.3604,6.3296 C56.3604,7.9046 56.2484,15.1066 56.2484,21.9176 C56.2484,28.8946 56.2484,37.0546 56.6404,38.8566 C56.7534,39.4186 57.1494,39.7566 57.7114,39.7566 C58.2174,39.7566 59.1174,39.6996 59.6254,39.6996 C60.0174,39.6996 60.1864,39.8696 60.1864,40.1496 C60.1864,40.4326 60.0174,40.6006 59.6254,40.6006 L56.1914,40.6006 C53.2654,40.6006 51.8014,39.5876 51.5204,36.1546 C50.7884,40.2636 48.4834,42.3466 45.7804,42.3466 C40.8284,42.3466 36.6644,37.4496 36.6644,29.0076 C36.6644,20.5656 40.9974,14.4886 45.7804,14.4886 C48.7074,14.4886 50.5644,16.7396 51.4634,20.5656 C51.4634,13.8696 51.4634,6.1036 51.1264,4.3586 C51.0124,3.7956 50.7314,3.4586 50.1134,3.4586" id="Fill-70" fill="#FFFFFF"></path>
                    <path d="M85.7334,6.8346 C86.0694,6.8346 86.2384,7.0036 86.2384,7.3416 C86.2384,9.0306 86.1844,12.6866 86.1844,14.3766 C86.1844,16.0636 86.2384,18.0066 86.2384,19.6936 C86.2384,20.0876 86.0124,20.2566 85.7334,20.2566 C85.4514,20.2566 85.2264,20.0876 85.2264,19.6936 L85.2264,17.3596 C85.2264,10.8856 83.3124,7.9036 78.8104,7.9036 C78.1924,7.9036 77.9644,8.1856 77.9104,8.7496 C77.6294,11.3366 77.5724,18.4836 77.5724,24.8436 C77.5724,31.2036 77.6294,38.2366 77.9104,40.8256 C78.0234,41.8376 78.4724,42.2326 79.6534,42.2326 L82.6374,42.2326 C83.0324,42.2326 83.1994,42.4006 83.1994,42.6826 C83.1994,42.9646 83.0324,43.1336 82.6374,43.1336 C80.9494,43.1336 77.1224,43.0206 74.9824,43.0206 C72.8464,43.0206 69.0174,43.1336 67.3314,43.1336 C66.9344,43.1336 66.7674,42.9646 66.7674,42.6826 C66.7674,42.4006 66.9344,42.2326 67.3314,42.2326 L70.3134,42.2326 C71.4954,42.2326 71.9454,41.8376 72.0584,40.8256 C72.3394,38.2366 72.3964,31.2036 72.3964,24.8436 C72.3964,18.4836 72.3394,11.3366 72.0584,8.7496 C72.0024,8.1856 71.7764,7.9036 71.1564,7.9036 C66.6544,7.9036 64.7404,10.8856 64.7404,17.3596 L64.7404,19.2506 C64.7404,19.6446 64.5154,19.8136 64.2334,19.8136 C63.9544,19.8136 63.7284,19.6446 63.7284,19.2506 C63.7284,17.5626 63.7854,16.0636 63.7854,14.3766 C63.7854,12.6866 63.7284,9.0306 63.7284,7.3416 C63.7284,7.0036 63.8974,6.8346 64.1764,6.8346 C66.9944,6.8346 72.2814,6.9486 74.9824,6.9486 C77.6834,6.9486 82.9184,6.8346 85.7334,6.8346" id="Fill-72" fill="#FFFFFF"></path>
                    <path d="M93.4492,6.8278 C95.6992,6.8278 96.9932,8.1218 96.9932,9.7558 C96.9932,11.5568 95.6992,12.6818 93.4492,12.6818 C91.3662,12.6818 89.9622,11.6128 89.9622,9.7558 C89.9622,8.1218 91.3122,6.8278 93.4492,6.8278 M96.6492,30.4708 C96.6492,33.9608 96.7062,38.2938 96.8772,40.4888 C96.9332,41.1648 97.2132,41.3898 97.7762,41.3898 L99.6902,41.3898 C100.0832,41.3898 100.2522,41.5578 100.2522,41.8398 C100.2522,42.1208 100.0832,42.2898 99.6902,42.2898 C98.0562,42.2898 96.2572,42.1778 94.1742,42.1778 C92.0342,42.1778 90.1782,42.2898 88.4902,42.2898 C88.0952,42.2898 87.9272,42.1208 87.9272,41.8398 C87.9272,41.5578 88.0952,41.3898 88.4902,41.3898 L90.4612,41.3898 C91.0222,41.3898 91.3032,41.0518 91.4172,40.4888 C91.7552,39.0808 91.8112,33.3968 91.8112,28.9518 C91.8112,24.7878 91.6962,19.0468 91.4172,17.8658 C91.3032,17.3028 91.0222,16.9648 90.4042,16.9648 C89.7822,16.9648 89.1082,17.0208 88.4902,17.0208 C88.0952,17.0208 87.9272,16.8538 87.9272,16.5718 C87.9272,16.2888 88.0952,16.1208 88.4902,16.1208 L93.1622,16.1208 C96.0312,16.1208 96.7062,16.9648 96.7062,19.8358 C96.7062,21.4108 96.6492,28.1648 96.6492,30.4708" id="Fill-74" fill="#FFFFFF"></path>
                    <path d="M119.8945,19.3019 C120.6805,15.8689 122.7075,14.1239 125.6905,14.1239 C130.6995,14.1239 132.1605,18.4579 132.2185,24.3669 C132.2755,29.7699 131.8805,36.1789 132.3855,38.8249 C132.4985,39.4439 132.8365,39.6689 133.3435,39.6689 L135.3125,39.6689 C135.7075,39.6689 135.8775,39.8379 135.8775,40.1199 C135.8775,40.4009 135.7075,40.5699 135.3125,40.5699 C133.6815,40.5699 131.6555,40.5129 129.5725,40.5129 C127.6025,40.5129 125.9155,40.5699 124.2275,40.5699 C123.8325,40.5699 123.6645,40.4009 123.6645,40.1199 C123.6645,39.8379 123.8325,39.6689 124.2275,39.6689 L125.9715,39.6689 C126.5335,39.6689 126.8155,39.4439 126.9275,38.8809 C127.2095,37.3609 127.4355,27.1809 127.2655,22.1719 C127.0965,17.1069 126.3105,15.2489 124.4525,15.2489 C122.3135,15.2489 120.5705,17.8959 120.2325,23.0169 C120.0065,26.7299 119.7245,38.0409 120.2325,40.6879 C120.3425,41.3079 120.6805,41.5309 121.1885,41.5309 L123.0455,41.5309 C123.4385,41.5309 123.6075,41.6999 123.6075,41.9799 C123.6075,42.2619 123.4385,42.4319 123.0455,42.4319 C121.4145,42.4319 119.4995,42.3749 117.4165,42.3749 C115.4485,42.3749 113.5345,42.4319 111.8455,42.4319 C111.4535,42.4319 111.2845,42.2619 111.2845,41.9799 C111.2845,41.6999 111.4535,41.5309 111.8455,41.5309 L113.8165,41.5309 C114.3775,41.5309 114.6615,41.3079 114.7725,40.7439 C115.0535,39.2249 115.3925,25.9429 115.2205,20.9349 C115.0535,15.9259 114.3215,14.0119 112.4655,14.0119 C110.3825,14.0119 108.7505,16.2629 108.4155,21.7789 C108.1305,25.8299 108.1305,35.5659 108.4685,37.7599 C108.5815,38.4349 108.8095,38.6609 109.3715,38.6609 L111.3405,38.6609 C111.7905,38.6609 111.9585,38.8309 111.9585,39.1119 C111.9585,39.3929 111.7905,39.5609 111.3405,39.5609 C109.7065,39.5609 107.8515,39.4489 105.7685,39.4489 C103.6305,39.4489 101.7735,39.5609 100.0845,39.5609 C99.6905,39.5609 99.5215,39.3929 99.5215,39.1119 C99.5215,38.8309 99.6905,38.6609 100.0845,38.6609 L102.0525,38.6609 C102.6165,38.6609 102.8985,38.3239 103.0105,37.7599 C103.3495,36.3539 103.4055,30.6689 103.4055,26.2249 C103.4055,22.0599 103.2905,18.0079 103.0105,16.8249 C102.8985,16.2629 102.6165,15.9259 101.9975,15.9259 C101.4895,15.9259 100.5895,15.9819 100.0845,15.9819 C99.6905,15.9819 99.5215,15.8129 99.5215,15.5319 C99.5215,15.2489 99.6905,15.0819 100.0845,15.0819 L103.5165,15.0819 C106.0495,15.0819 107.5125,15.8689 108.0205,18.4029 C108.6945,15.0819 110.3265,13.1129 113.0275,12.8869 C117.3035,12.6049 119.2175,15.2489 119.8945,19.3019" id="Fill-76" fill="#FFFFFF"></path>
                    <path d="M146.1738,15.6144 C143.3058,15.6144 141.6148,19.4984 141.5048,27.6574 C143.8668,27.7134 147.3558,27.7134 149.7768,27.7134 C149.9998,19.3854 148.9888,15.6144 146.1738,15.6144 M155.2368,34.7484 C155.3468,34.2424 155.6288,34.0724 156.0798,34.1864 C156.4738,34.2974 156.5268,34.7484 156.4158,35.1974 C155.2368,39.9264 151.8578,42.5704 147.1318,42.5704 C140.9418,42.5704 135.8778,37.9554 135.8778,28.8954 C135.8778,20.4544 140.7158,14.7154 146.1738,14.7154 C151.5198,14.7154 155.4028,19.9474 155.4028,28.0514 C155.4028,28.5014 155.2368,28.6704 154.7848,28.6704 C150.7888,28.6704 145.4978,28.5584 141.5048,28.6704 L141.5048,28.8954 C141.5048,39.1364 143.6958,41.5574 147.3558,41.5574 C151.1248,41.5574 154.0528,39.4184 155.2368,34.7484" id="Fill-78" fill="#FFFFFF"></path>
                    <path d="M182.2549,31.0905 C182.2549,38.7445 178.8229,43.3575 173.9839,43.3575 C167.3989,43.3575 161.9959,36.4925 161.9959,24.1115 C161.9959,11.7875 168.2979,4.4155 173.6989,4.4155 C176.2339,4.4155 176.9089,5.3725 178.4289,5.3725 C179.4969,5.3725 180.0589,4.8095 180.0589,3.7965 L180.0589,0.7365 C180.0589,0.3425 180.2289,0.1745 180.5099,0.1745 C180.9059,0.1745 181.0729,0.3425 181.0729,0.7365 C181.0729,2.4245 181.0169,8.3545 181.0169,10.4935 C181.0169,12.5745 181.0729,18.1615 181.0729,19.9045 C181.0729,20.2985 180.9059,20.4675 180.5099,20.4675 C180.2289,20.4675 180.0589,20.2985 180.0589,19.9045 L180.0589,14.0735 C180.0589,6.8695 176.8029,5.4285 173.6989,5.4285 C170.4399,5.4285 167.7359,8.7495 167.7359,24.0565 C167.7359,37.2805 170.4399,42.1765 174.4899,42.1765 C177.6399,42.1765 181.0729,38.6885 181.0729,30.9225 C181.0729,29.9085 181.1859,29.5145 181.6349,29.5145 C182.0289,29.5145 182.2549,29.9655 182.2549,31.0905" id="Fill-80" fill="#FFFFFF"></path>
                    <path d="M197.2822,28.7829 C190.5852,28.4459 189.5152,30.6969 189.5152,35.8179 C189.5152,39.8699 191.1482,41.5009 192.7802,41.5009 C194.9182,41.5009 196.9442,39.1949 197.1702,34.4669 C197.2252,32.6659 197.2822,30.6969 197.2822,28.7829 M197.3392,38.2369 C196.4392,41.1649 194.4692,42.6279 192.0482,42.6279 C187.3202,42.6279 183.9432,39.6999 183.9432,35.3109 C183.9432,30.4709 186.3072,27.6029 197.2822,27.8839 C197.2822,25.9119 197.2252,24.1129 197.1702,22.8189 C197.0002,17.6969 195.5942,15.5019 192.6682,15.5019 C191.2612,15.5019 190.2462,15.8959 189.4032,16.6269 C190.6422,17.6399 191.2042,19.3859 191.2042,21.1849 C191.2042,24.1129 189.9082,25.6879 188.3352,25.6879 C186.7022,25.6879 185.6902,24.5059 185.6902,22.3109 C185.6902,17.9789 188.6162,14.6579 193.2852,14.6579 C198.8582,14.6579 202.0662,18.8229 202.1202,25.0689 C202.1772,30.4709 201.8962,38.0689 202.2892,40.5999 C202.5712,42.2899 203.4142,43.0769 204.7092,43.0769 C205.2722,43.0769 205.8362,42.9649 206.2862,42.8519 C206.7372,42.7389 206.9062,42.8519 206.9612,43.0769 C207.0162,43.3589 206.9062,43.5279 206.5112,43.6969 C205.6662,44.0349 204.6522,44.2019 203.4702,44.2019 C200.0952,44.2019 197.8442,42.6829 197.3392,38.2369" id="Fill-82" fill="#FFFFFF"></path>
                    <path d="M225.6465,25.7443 C225.7015,31.1473 225.3065,39.5893 225.8165,42.2333 C225.9265,42.8523 226.2645,43.0773 226.7695,43.0773 L228.7405,43.0773 C229.1345,43.0773 229.3035,43.2463 229.3035,43.5283 C229.3035,43.8093 229.1345,43.9773 228.7405,43.9773 C227.1105,43.9773 225.0835,43.9213 223.0005,43.9213 C221.0325,43.9213 219.1165,43.9773 217.4295,43.9773 C217.0335,43.9773 216.8665,43.8093 216.8665,43.5283 C216.8665,43.2463 217.0335,43.0773 217.4295,43.0773 L219.3985,43.0773 C219.9635,43.0773 220.2435,42.8523 220.3555,42.2903 C220.6375,40.7703 220.8635,28.5583 220.6925,23.5493 C220.5255,18.1463 219.6255,16.7403 217.4295,16.7403 C215.1775,16.7403 212.9275,18.7663 212.5875,24.3933 C212.3075,28.4453 212.3075,36.6053 212.6455,38.8003 C212.7585,39.4763 212.9845,39.6993 213.5455,39.6993 L215.5155,39.6993 C215.9645,39.6993 216.1335,39.8703 216.1335,40.1503 C216.1335,40.4323 215.9645,40.6003 215.5155,40.6003 C213.8835,40.6003 212.0265,40.4893 209.9435,40.4893 C207.8055,40.4893 205.9485,40.6003 204.2595,40.6003 C203.8655,40.6003 203.6985,40.4323 203.6985,40.1503 C203.6985,39.8703 203.8655,39.6993 204.2595,39.6993 L206.2305,39.6993 C206.7915,39.6993 207.0735,39.3643 207.1855,38.8003 C207.5245,37.3933 207.5805,31.7093 207.5805,27.2643 C207.5805,23.0993 207.4675,17.3593 207.1855,16.1773 C207.0735,15.6143 206.7915,15.2773 206.1715,15.2773 C205.6665,15.2773 204.7665,15.3333 204.2595,15.3333 C203.8655,15.3333 203.6985,15.1633 203.6985,14.8833 C203.6985,14.6013 203.8655,14.4333 204.2595,14.4333 L207.6935,14.4333 C210.9575,14.4333 212.3645,15.7833 212.4205,20.3413 C213.3205,17.2463 215.5725,15.4453 218.4985,15.4453 C224.0125,15.4453 225.5905,19.6093 225.6465,25.7443" id="Fill-84" fill="#FFFFFF"></path>
                    <path d="M233.8623,29.0646 C233.8623,39.8126 235.8863,41.3326 237.9673,41.3326 C240.5573,41.3326 243.0333,37.8986 243.0333,28.7826 C243.0333,19.6666 240.8403,15.5016 237.9673,15.5016 C235.9433,15.5016 233.8623,18.0896 233.8623,29.0646 M241.7393,3.4586 C241.1213,3.4586 240.3883,3.5146 239.7683,3.5146 C239.3743,3.5146 239.2073,3.3456 239.2073,3.0646 C239.2073,2.7826 239.3743,2.6146 239.7683,2.6146 L244.4403,2.6146 C247.3113,2.6146 247.9863,3.4586 247.9863,6.3296 C247.9863,7.9046 247.8733,15.1066 247.8733,21.9176 C247.8733,28.8946 247.8733,37.0546 248.2673,38.8566 C248.3793,39.4186 248.7733,39.7566 249.3373,39.7566 C249.8413,39.7566 250.7453,39.6996 251.2503,39.6996 C251.6443,39.6996 251.8143,39.8696 251.8143,40.1496 C251.8143,40.4326 251.6443,40.6006 251.2503,40.6006 L247.8173,40.6006 C244.8903,40.6006 243.4273,39.5876 243.1483,36.1546 C242.4153,40.2636 240.1073,42.3466 237.4063,42.3466 C232.4533,42.3466 228.2893,37.4496 228.2893,29.0076 C228.2893,20.5656 232.6223,14.4886 237.4063,14.4886 C240.3323,14.4886 242.1903,16.7396 243.0903,20.5656 C243.0903,13.8696 243.0903,6.1036 242.7523,4.3586 C242.6383,3.7956 242.3573,3.4586 241.7393,3.4586" id="Fill-86" fill="#FFFFFF"></path>
                    <path d="M267.5898,17.7677 L265.3398,17.7677 C264.9448,17.7677 264.7768,17.5987 264.7768,17.3187 C264.7768,17.0367 264.9448,16.8677 265.3398,16.8677 C267.0278,16.8677 268.8848,16.9807 270.4618,16.9807 C271.9818,16.9807 273.2758,16.8677 274.3448,16.8677 C274.7928,16.8677 274.9638,17.0367 274.9638,17.3187 C274.9638,17.5987 274.7928,17.7677 274.3448,17.7677 L273.3298,17.7677 C271.7558,17.7677 271.1928,18.1627 270.3478,20.2447 C268.9988,23.7887 264.6438,36.2117 262.6758,42.5707 C260.5358,49.3797 257.4418,53.7127 253.1638,53.7127 C249.3928,53.7127 247.4248,51.1237 247.4248,47.8047 C247.4248,45.8337 248.4368,44.5967 250.0688,44.5967 C251.6988,44.5967 252.9398,46.0027 252.9398,48.5357 C252.9398,50.2237 252.4318,51.5177 251.6988,52.4187 C252.1518,52.5877 252.6008,52.6437 253.1088,52.6437 C256.2598,52.6437 259.0728,49.6047 261.2688,43.1327 C258.6218,35.5927 252.3188,20.2847 250.9118,17.2467 C250.4618,16.2887 249.9558,15.8397 248.6618,15.8397 L247.3678,15.8397 C246.9168,15.8397 246.7478,15.6697 246.7478,15.3887 C246.7478,15.1067 246.9168,14.9387 247.3678,14.9387 C248.9998,14.9387 251.5318,15.0517 253.6128,15.0517 C255.7528,15.0517 259.3548,14.9387 261.0408,14.9387 C261.4358,14.9387 261.6048,15.1067 261.6048,15.3887 C261.6048,15.6697 261.4358,15.8397 261.0408,15.8397 L257.6108,15.8397 C256.9338,15.8397 256.6518,16.1777 256.6518,16.7967 C256.6518,18.0347 261.4358,30.0217 263.6318,35.5927 C265.6018,30.0217 268.5458,21.1437 269.0558,19.3437 C269.3918,18.0487 268.9428,17.7677 267.5898,17.7677" id="Fill-88" fill="#FFFFFF"></path>
                    <path d="M271.6914,35.5085 C270.2754,35.5085 269.3234,36.5035 269.3234,37.9865 C269.3234,39.5135 270.1944,40.4265 271.6554,40.4265 C272.9634,40.4265 273.8774,39.4075 273.8774,37.9495 C273.8774,36.4895 272.9984,35.5085 271.6914,35.5085" id="Fill-90" fill="#FFFFFF"></path>
                    <path d="M288.8047,33.1437 C288.7747,33.1377 288.7457,33.1367 288.7197,33.1367 C288.5247,33.1367 288.3197,33.2687 288.3197,33.6417 C288.3197,36.8227 286.4577,39.2227 283.9847,39.2227 C282.6377,39.2227 280.3797,38.2647 280.3797,31.8457 C280.3797,25.2927 282.2657,22.7917 284.0307,22.6387 C285.0347,22.5627 286.1437,23.2067 286.7007,24.1157 C285.6287,24.9087 285.0587,26.2087 285.0587,27.8897 C285.0587,29.3887 285.8697,30.4767 286.9897,30.4767 C287.9477,30.4767 288.9167,29.4117 288.9167,27.3767 C288.9167,24.7317 286.8907,21.7857 283.9847,21.7857 C279.6897,21.7857 276.4507,26.1257 276.4507,31.8827 C276.4507,36.8707 279.3757,40.2217 283.7267,40.2217 C286.9247,40.2217 289.2467,37.6237 289.2467,34.0427 C289.2467,33.6147 289.1927,33.2087 288.8047,33.1437" id="Fill-92" fill="#FFFFFF"></path>
                    <path d="M298.1308,38.82 C296.1998,38.82 295.2228,36.017 295.2228,30.49 C295.2228,24.964 296.1998,22.161 298.1308,22.161 C300.0588,22.161 301.0358,24.964 301.0358,30.49 C301.0358,36.017 300.0588,38.82 298.1308,38.82 M298.1308,21.309 C294.8158,21.309 291.2918,24.528 291.2918,30.49 C291.2918,36.455 294.8158,39.671 298.1308,39.671 C301.4448,39.671 304.9668,36.455 304.9668,30.49 C304.9668,24.528 301.4448,21.309 298.1308,21.309" id="Fill-94" fill="#FFFFFF"></path>
                    <path d="M328.707,38.1813 L327.745,38.1813 C327.451,38.1813 327.309,38.0543 327.252,37.7393 C327.036,36.6153 327.075,34.8693 327.115,32.3473 C327.135,31.0643 327.157,29.7403 327.145,28.5473 C327.117,25.6293 326.632,21.7483 322.762,21.7483 C320.904,21.7483 319.614,22.7543 319.011,24.6653 C318.449,22.1523 317.104,20.9293 314.917,20.9293 C314.786,20.9293 314.649,20.9343 314.509,20.9433 C312.874,21.0803 311.781,22.1453 311.252,24.1133 C310.846,22.8843 309.964,22.3723 308.328,22.3723 L306.094,22.3723 C305.644,22.3723 305.593,22.6693 305.593,22.7973 C305.593,22.9263 305.644,23.2233 306.094,23.2233 C306.263,23.2233 306.492,23.2153 306.724,23.2053 C306.951,23.1953 307.177,23.1873 307.34,23.1873 C307.647,23.1873 307.801,23.3263 307.869,23.6713 C308.028,24.3333 308.123,26.6093 308.123,29.7593 C308.123,34.0223 308.036,36.5383 307.867,37.2403 C307.801,37.5773 307.654,37.7213 307.376,37.7213 L306.414,37.7213 C305.965,37.7213 305.915,38.0183 305.915,38.1463 C305.915,38.2753 305.965,38.5733 306.414,38.5733 C306.934,38.5733 307.156,38.5573 307.73,38.5393 C308.383,38.5203 309.059,38.4993 309.793,38.4993 C310.512,38.4993 311.178,38.5203 311.824,38.5393 C312.388,38.5573 312.601,38.5733 313.102,38.5733 C313.568,38.5733 313.637,38.3063 313.637,38.1463 C313.637,37.9873 313.568,37.7213 313.102,37.7213 L312.138,37.7213 C311.86,37.7213 311.751,37.6493 311.683,37.2473 C311.46,35.7863 311.47,29.4663 311.648,26.8723 C311.842,23.6923 312.733,21.9423 314.154,21.9423 C315.257,21.9423 315.708,23.1283 315.814,26.3193 C315.928,29.6053 315.704,38.2243 315.522,39.1833 C315.467,39.4823 315.336,39.5893 315.034,39.5893 L314.069,39.5893 C313.619,39.5893 313.57,39.8883 313.57,40.0153 C313.57,40.1423 313.619,40.4403 314.069,40.4403 C314.599,40.4403 314.845,40.4323 315.428,40.4233 C316.738,40.4043 318.187,40.4053 319.427,40.4243 C320.001,40.4323 320.22,40.4403 320.719,40.4403 C321.172,40.4403 321.221,40.1423 321.221,40.0153 C321.221,39.8883 321.172,39.5893 320.719,39.5893 L319.832,39.5893 C319.54,39.5893 319.394,39.4623 319.341,39.1473 C319.017,37.4683 319.186,30.2673 319.341,27.6783 C319.542,24.6373 320.546,22.7473 321.957,22.7473 C322.889,22.7473 323.535,23.4923 323.655,27.1253 C323.76,30.2453 323.623,36.7823 323.436,37.7753 C323.378,38.0793 323.253,38.1813 322.945,38.1813 L322.13,38.1813 C321.679,38.1813 321.629,38.4803 321.629,38.6073 C321.629,38.7363 321.679,39.0333 322.13,39.0333 C322.659,39.0333 322.868,39.0253 323.418,39.0163 C324.008,39.0073 324.626,38.9963 325.292,38.9963 C326.008,38.9963 326.715,39.0073 327.381,39.0173 C327.971,39.0253 328.208,39.0333 328.707,39.0333 C329.158,39.0333 329.206,38.7363 329.206,38.6073 C329.206,38.4803 329.158,38.1813 328.707,38.1813" id="Fill-96" fill="#FFFFFF"></path>
                    <path d="M58.479,66.675 C57.91,66.774 57.386,66.823 56.907,66.823 C55.122,66.823 53.67,66.296 52.556,65.243 C51.441,64.19 50.883,62.771 50.883,60.986 C50.883,59.201 51.436,57.786 52.542,56.743 C53.646,55.7 55.109,55.178 56.928,55.178 C57.611,55.178 58.231,55.264 58.791,55.438 C58.76,55.363 58.746,55.271 58.746,55.159 C58.746,55.048 58.809,54.942 58.936,54.841 C59.061,54.739 59.197,54.688 59.343,54.688 C59.489,54.688 59.625,54.758 59.751,54.9 C59.877,55.041 60.025,55.306 60.196,55.697 C60.367,56.088 60.61,56.454 60.926,56.795 L61.194,57.107 C61.421,57.368 61.535,57.604 61.535,57.811 C61.535,58.256 61.35,58.479 60.979,58.479 C60.672,58.479 60.37,58.232 60.071,57.737 C59.77,57.242 59.313,56.875 58.698,56.635 C58.082,56.396 57.453,56.276 56.81,56.276 C55.464,56.276 54.38,56.687 53.558,57.51 C52.735,58.334 52.323,59.479 52.323,60.945 C52.323,62.411 52.75,63.562 53.606,64.398 C54.461,65.234 55.492,65.652 56.699,65.652 C57.905,65.652 58.756,65.4 59.25,64.895 C59.502,64.628 59.678,64.408 59.777,64.235 L60.021,63.797 C60.245,63.372 60.467,63.132 60.69,63.077 C60.763,63.058 60.865,63.048 60.994,63.048 C61.123,63.048 61.246,63.116 61.365,63.252 C61.483,63.388 61.542,63.548 61.542,63.731 C61.542,64.047 61.341,64.424 60.938,64.862 C60.535,65.299 60.263,65.656 60.122,65.933 C59.981,66.21 59.895,66.507 59.867,66.823 C59.827,67.243 59.599,67.454 59.184,67.454 C59,67.454 58.837,67.385 58.694,67.246 C58.551,67.108 58.479,66.943 58.479,66.749 L58.479,66.675 Z" id="Fill-98" fill="#414142"></path>
                    <path d="M68.2661,63.6266 C67.4651,63.4736 66.7541,63.3966 66.1341,63.3966 C65.5131,63.3966 65.0561,63.5186 64.7611,63.7636 C64.4671,64.0076 64.3201,64.2866 64.3201,64.5986 C64.3201,64.9096 64.4551,65.1656 64.7281,65.3666 C65.0001,65.5656 65.3811,65.6666 65.8701,65.6666 C66.8731,65.6666 67.6731,65.3426 68.2661,64.6946 L68.2661,63.6266 Z M68.4371,65.8446 C67.8931,66.4976 66.9911,66.8236 65.7301,66.8236 C64.8881,66.8236 64.2201,66.6296 63.7231,66.2456 C63.2261,65.8586 62.9771,65.3366 62.9771,64.6786 C62.9771,63.5866 63.5831,62.8746 64.7941,62.5436 C65.2051,62.4346 65.7361,62.3806 66.3861,62.3806 C67.0361,62.3806 67.6621,62.4546 68.2661,62.6026 L68.2661,61.7866 C68.2661,60.9706 67.9401,60.4716 67.2871,60.2886 C67.0541,60.2196 66.7441,60.1846 66.3521,60.1846 C65.5161,60.1846 65.0341,60.4066 64.9071,60.8526 C64.8281,61.0896 64.6861,61.2596 64.4831,61.3636 C64.3941,61.4086 64.2931,61.4306 64.1801,61.4306 C63.7091,61.4306 63.4741,61.1786 63.4741,60.6736 C63.4741,60.2436 63.7571,59.8626 64.3241,59.5316 C64.8901,59.2006 65.6091,59.0346 66.4781,59.0346 C67.9531,59.0346 68.9041,59.5566 69.3341,60.6006 C69.4771,60.9566 69.5491,61.3766 69.5491,61.8606 L69.5491,63.7816 C69.5491,64.4546 69.5771,64.9056 69.6311,65.1356 C69.6851,65.3666 69.7871,65.5286 69.9351,65.6216 C70.1981,65.7906 70.3291,65.9856 70.3291,66.2086 C70.3291,66.6186 70.0701,66.8236 69.5531,66.8236 C69.0371,66.8236 68.6641,66.4976 68.4371,65.8446 Z" id="Fill-100" fill="#414142"></path>
                    <path d="M72.3188,66.7121 C71.8438,66.7121 71.6078,66.5281 71.6078,66.1631 C71.6078,65.9851 71.6818,65.8471 71.8298,65.7471 C71.9778,65.6491 72.1828,65.5991 72.4458,65.5991 L73.1048,65.5991 L73.1048,60.7631 C73.1048,60.4661 73.0418,60.3181 72.9128,60.3181 C72.8438,60.3181 72.7518,60.3361 72.6378,60.3701 C72.5238,60.4041 72.3858,60.4221 72.2218,60.4221 C72.0598,60.4221 71.9168,60.3701 71.7928,60.2661 C71.6688,60.1631 71.6078,60.0221 71.6078,59.8431 C71.6078,59.4681 71.8748,59.2531 72.4088,59.1981 C72.6908,59.1731 72.9538,59.1301 73.1988,59.0681 C73.4428,59.0061 73.6588,58.9761 73.8468,58.9761 C74.2088,58.9761 74.3878,59.2131 74.3878,59.6881 L74.3878,60.6591 C74.6008,60.1851 74.9498,59.7951 75.4348,59.4911 C75.9198,59.1871 76.4308,59.0351 76.9698,59.0351 C77.9288,59.0351 78.6098,59.2771 79.0098,59.7621 C79.4108,60.2471 79.6108,60.8991 79.6108,61.7201 L79.6108,65.5991 L80.1078,65.5991 C80.7308,65.5991 81.0418,65.7951 81.0418,66.1861 C81.0418,66.3231 80.9828,66.4461 80.8638,66.5531 C80.7458,66.6591 80.5428,66.7121 80.2558,66.7121 L78.9498,66.6671 L77.5408,66.7121 C77.0658,66.7121 76.8298,66.5281 76.8298,66.1631 C76.8298,65.9851 76.9038,65.8471 77.0518,65.7471 C77.2008,65.6491 77.4058,65.5991 77.6678,65.5991 L78.3128,65.5991 L78.3128,62.2021 C78.3128,61.1641 78.0498,60.5411 77.5268,60.3331 C77.3428,60.2591 77.1238,60.2221 76.8658,60.2221 C76.3378,60.2221 75.8318,60.4241 75.3488,60.8301 C74.8668,61.2351 74.5478,61.7501 74.3878,62.3731 L74.3878,65.5991 L74.8858,65.5991 C75.5088,65.5991 75.8208,65.7951 75.8208,66.1861 C75.8208,66.3231 75.7608,66.4461 75.6428,66.5531 C75.5228,66.6591 75.3208,66.7121 75.0348,66.7121 L73.7288,66.6671 L72.3188,66.7121 Z" id="Fill-102" fill="#414142"></path>
                    <path d="M87.6245,60.756 C87.1455,60.39 86.5555,60.207 85.8555,60.207 C85.1555,60.207 84.5645,60.462 84.0825,60.971 C83.6015,61.48 83.3595,62.147 83.3595,62.97 C83.3595,63.793 83.5795,64.446 84.0195,64.928 C84.4595,65.41 85.0475,65.652 85.7845,65.652 C86.5215,65.652 87.1355,65.367 87.6245,64.798 L87.6245,60.756 Z M87.8175,65.888 C87.2585,66.512 86.5075,66.823 85.5615,66.823 C84.6175,66.823 83.7995,66.481 83.1075,65.796 C82.4145,65.11 82.0685,64.192 82.0685,63.036 C82.0685,61.882 82.4475,60.926 83.2035,60.17 C83.9605,59.413 84.9095,59.035 86.0525,59.035 C86.6355,59.035 87.1595,59.161 87.6245,59.413 L87.6245,56.676 C87.6245,56.484 87.6085,56.362 87.5755,56.313 C87.5435,56.263 87.4985,56.238 87.4395,56.238 L86.8015,56.328 C86.6035,56.328 86.4405,56.278 86.3145,56.179 C86.1885,56.08 86.1265,55.942 86.1265,55.764 C86.1265,55.388 86.3955,55.173 86.9355,55.119 C87.3005,55.084 87.5735,55.037 87.7545,54.978 C87.9355,54.919 88.1285,54.888 88.3365,54.888 C88.7175,54.888 88.9075,55.126 88.9075,55.601 L88.9075,63.782 C88.9075,64.455 88.9355,64.905 88.9885,65.136 C89.0435,65.366 89.1455,65.528 89.2935,65.621 C89.5505,65.79 89.6795,65.98 89.6795,66.193 C89.6795,66.613 89.4265,66.823 88.9195,66.823 C88.4115,66.823 88.0455,66.512 87.8175,65.888 Z" id="Fill-104" fill="#414142"></path>
                    <path d="M98.3969,59.1462 C98.8019,59.1462 99.0049,59.3142 99.0049,59.6502 C99.0049,59.8192 98.9519,59.9392 98.8449,60.0142 C98.7389,60.0882 98.6409,60.1502 98.5519,60.2002 C98.1819,60.3972 97.8049,60.9732 97.4239,61.9282 L95.0959,67.6392 C94.6359,68.7962 94.2209,69.5992 93.8489,70.0462 C93.4789,70.4932 92.9979,70.7182 92.4069,70.7182 C91.8159,70.7182 91.3559,70.5622 91.0269,70.2502 C90.6979,69.9382 90.5349,69.5952 90.5349,69.2192 C90.5349,68.8432 90.6119,68.5542 90.7679,68.3512 C90.9229,68.1482 91.1209,68.0472 91.3569,68.0472 C91.8029,68.0472 92.0249,68.2472 92.0249,68.6472 C92.0249,68.7472 92.0039,68.8462 91.9609,68.9442 C91.9199,69.0442 91.8989,69.1362 91.8989,69.2232 C91.8989,69.3102 91.9499,69.3892 92.0509,69.4602 C92.1529,69.5322 92.2719,69.5672 92.4109,69.5672 C92.6929,69.5672 92.9729,69.3572 93.2519,68.9372 C93.5319,68.5172 93.8809,67.7402 94.3019,66.6082 L92.1579,61.9282 C91.7679,61.0922 91.3569,60.5212 90.9269,60.2142 C90.6449,60.0122 90.5039,59.8132 90.5039,59.6212 C90.5039,59.3052 90.7099,59.1462 91.1209,59.1462 L91.9209,59.1982 L93.2489,59.1022 C93.4869,59.1022 93.6669,59.1482 93.7909,59.2432 C93.9149,59.3362 93.9749,59.4532 93.9749,59.5912 C93.9749,60.0412 93.5919,60.2662 92.8269,60.2662 L94.9479,65.1612 L96.7649,60.2662 L96.6539,60.2662 C95.8819,60.2662 95.4969,60.0412 95.4969,59.5912 C95.4969,59.4532 95.5559,59.3362 95.6739,59.2432 C95.7929,59.1482 95.9709,59.1022 96.2089,59.1022 L97.5509,59.1982 L98.3969,59.1462 Z" id="Fill-106" fill="#414142"></path>
                    <path d="M112.7368,59.1462 C113.1418,59.1462 113.3448,59.3142 113.3448,59.6502 C113.3448,59.8192 113.2918,59.9392 113.1848,60.0142 C113.0788,60.0882 112.9808,60.1502 112.8918,60.2002 C112.5218,60.3972 112.1448,60.9732 111.7638,61.9282 L109.4358,67.6392 C108.9758,68.7962 108.5608,69.5992 108.1888,70.0462 C107.8188,70.4932 107.3378,70.7182 106.7478,70.7182 C106.1558,70.7182 105.6958,70.5622 105.3668,70.2502 C105.0378,69.9382 104.8748,69.5952 104.8748,69.2192 C104.8748,68.8432 104.9518,68.5542 105.1078,68.3512 C105.2638,68.1482 105.4608,68.0472 105.6968,68.0472 C106.1428,68.0472 106.3648,68.2472 106.3648,68.6472 C106.3648,68.7472 106.3438,68.8462 106.3008,68.9442 C106.2598,69.0442 106.2388,69.1362 106.2388,69.2232 C106.2388,69.3102 106.2898,69.3892 106.3908,69.4602 C106.4928,69.5322 106.6118,69.5672 106.7508,69.5672 C107.0328,69.5672 107.3128,69.3572 107.5918,68.9372 C107.8718,68.5172 108.2208,67.7402 108.6418,66.6082 L106.4988,61.9282 C106.1078,61.0922 105.6968,60.5212 105.2668,60.2142 C104.9848,60.0122 104.8438,59.8132 104.8438,59.6212 C104.8438,59.3052 105.0498,59.1462 105.4608,59.1462 L106.2608,59.1982 L107.5888,59.1022 C107.8268,59.1022 108.0078,59.1482 108.1308,59.2432 C108.2548,59.3362 108.3148,59.4532 108.3148,59.5912 C108.3148,60.0412 107.9328,60.2662 107.1668,60.2662 L109.2878,65.1612 L111.1048,60.2662 L110.9938,60.2662 C110.2218,60.2662 109.8368,60.0412 109.8368,59.5912 C109.8368,59.4532 109.8958,59.3362 110.0138,59.2432 C110.1328,59.1482 110.3108,59.1022 110.5488,59.1022 L111.8908,59.1982 L112.7368,59.1462 Z" id="Fill-108" fill="#414142"></path>
                    <path d="M115.3227,62.8957 C115.3227,63.7147 115.5557,64.3777 116.0237,64.8877 C116.4907,65.3967 117.0857,65.6517 117.8077,65.6517 C118.5297,65.6517 119.1117,65.4117 119.5547,64.9317 C119.9967,64.4527 120.2187,63.8117 120.2187,63.0107 C120.2187,61.6807 119.7467,60.8127 118.8017,60.4067 C118.4907,60.2737 118.1387,60.2067 117.7487,60.2067 C117.0017,60.2067 116.4107,60.4507 115.9747,60.9377 C115.5407,61.4247 115.3227,62.0777 115.3227,62.8957 M114.0327,62.9777 C114.0327,61.8477 114.3917,60.9077 115.1117,60.1587 C115.8307,59.4097 116.7357,59.0347 117.8257,59.0347 C118.9167,59.0347 119.8037,59.3817 120.4887,60.0767 C121.1737,60.7717 121.5167,61.6997 121.5167,62.8587 C121.5167,64.0187 121.1597,64.9687 120.4447,65.7097 C119.7287,66.4527 118.8177,66.8237 117.7077,66.8237 C116.5967,66.8237 115.7077,66.4647 115.0377,65.7477 C114.3667,65.0307 114.0327,64.1077 114.0327,62.9777" id="Fill-110" fill="#414142"></path>
                    <path d="M128.5805,65.3176 C128.0925,66.3216 127.2695,66.8236 126.1185,66.8236 C125.7425,66.8236 125.3935,66.7566 125.0725,66.6236 C124.1775,66.2476 123.7295,65.4236 123.7295,64.1526 L123.7295,60.8226 C123.7295,60.5356 123.6655,60.3926 123.5375,60.3926 L122.9875,60.4816 C122.5485,60.4816 122.3275,60.2786 122.3275,59.8736 C122.3275,59.5116 122.5655,59.3096 123.0405,59.2646 C123.3215,59.2406 123.5415,59.2056 123.7005,59.1606 L124.0785,59.0716 C124.1725,59.0476 124.3065,59.0346 124.4785,59.0346 C124.6515,59.0346 124.7855,59.1016 124.8795,59.2346 C124.9735,59.3686 125.0205,59.5396 125.0205,59.7476 L125.0205,63.6706 C125.0205,64.6656 125.2705,65.2786 125.7695,65.5106 C125.9535,65.5946 126.1675,65.6356 126.4145,65.6356 C126.8805,65.6356 127.3125,65.4096 127.7135,64.9546 C128.1135,64.4996 128.3955,63.9426 128.5595,63.2856 L128.5595,60.8226 C128.5595,60.6346 128.5415,60.5156 128.5065,60.4666 C128.4735,60.4176 128.4235,60.3926 128.3585,60.3926 L127.8395,60.4816 C127.3985,60.4816 127.1795,60.2786 127.1795,59.8736 C127.1795,59.5116 127.4215,59.3096 127.9055,59.2646 C128.1635,59.2406 128.3735,59.2086 128.5365,59.1686 L128.9065,59.0716 C128.9965,59.0476 129.1295,59.0346 129.3055,59.0346 C129.4795,59.0346 129.6125,59.1016 129.7055,59.2346 C129.7965,59.3686 129.8425,59.5396 129.8425,59.7476 L129.8425,63.7816 C129.8425,64.7126 129.9555,65.2826 130.1835,65.4956 C130.2525,65.5596 130.3435,65.6146 130.4575,65.6586 C130.6555,65.7376 130.7545,65.8936 130.7545,66.1266 C130.7545,66.5906 130.4785,66.8236 129.9275,66.8236 C129.3765,66.8236 128.9835,66.5486 128.7525,65.9996 C128.6675,65.8076 128.6105,65.5796 128.5805,65.3176" id="Fill-112" fill="#414142"></path>
                    <path d="M142.2153,63.6266 C141.4143,63.4736 140.7033,63.3966 140.0833,63.3966 C139.4623,63.3966 139.0053,63.5186 138.7113,63.7636 C138.4163,64.0076 138.2693,64.2866 138.2693,64.5986 C138.2693,64.9096 138.4053,65.1656 138.6773,65.3666 C138.9493,65.5656 139.3303,65.6666 139.8193,65.6666 C140.8233,65.6666 141.6223,65.3426 142.2153,64.6946 L142.2153,63.6266 Z M142.3863,65.8446 C141.8423,66.4976 140.9403,66.8236 139.6793,66.8236 C138.8373,66.8236 138.1693,66.6296 137.6723,66.2456 C137.1753,65.8586 136.9263,65.3366 136.9263,64.6786 C136.9263,63.5866 137.5323,62.8746 138.7433,62.5436 C139.1543,62.4346 139.6853,62.3806 140.3353,62.3806 C140.9853,62.3806 141.6113,62.4546 142.2153,62.6026 L142.2153,61.7866 C142.2153,60.9706 141.8893,60.4716 141.2363,60.2886 C141.0043,60.2196 140.6933,60.1846 140.3013,60.1846 C139.4653,60.1846 138.9843,60.4066 138.8563,60.8526 C138.7773,61.0896 138.6353,61.2596 138.4323,61.3636 C138.3433,61.4086 138.2423,61.4306 138.1293,61.4306 C137.6583,61.4306 137.4243,61.1786 137.4243,60.6736 C137.4243,60.2436 137.7063,59.8626 138.2733,59.5316 C138.8393,59.2006 139.5583,59.0346 140.4273,59.0346 C141.9023,59.0346 142.8533,59.5566 143.2833,60.6006 C143.4263,60.9566 143.4983,61.3766 143.4983,61.8606 L143.4983,63.7816 C143.4983,64.4546 143.5263,64.9056 143.5803,65.1356 C143.6343,65.3666 143.7363,65.5286 143.8843,65.6216 C144.1473,65.7906 144.2783,65.9856 144.2783,66.2086 C144.2783,66.6186 144.0193,66.8236 143.5023,66.8236 C142.9863,66.8236 142.6133,66.4976 142.3863,65.8446 Z" id="Fill-114" fill="#414142"></path>
                    <path d="M147.9751,59.1979 L149.8521,59.1459 C150.1431,59.1459 150.3481,59.1989 150.4671,59.3059 C150.5851,59.4119 150.6451,59.5419 150.6451,59.6959 C150.6451,59.8489 150.5791,59.9849 150.4451,60.1029 C150.3111,60.2219 150.1101,60.2809 149.8401,60.2809 C149.5711,60.2809 149.1961,60.2689 148.7171,60.2439 L147.9751,60.2219 L147.9751,63.7819 C147.9751,64.5189 148.0281,64.9899 148.1341,65.1919 C148.2401,65.3939 148.3461,65.5209 148.4531,65.5699 C148.5601,65.6189 148.7211,65.6439 148.9391,65.6439 C149.1571,65.6439 149.3621,65.5559 149.5541,65.3809 C149.7471,65.2049 149.8891,65.0889 149.9811,65.0319 C150.0731,64.9759 150.1911,64.9469 150.3361,64.9469 C150.4831,64.9469 150.6061,65.0029 150.7071,65.1159 C150.8091,65.2319 150.8601,65.3649 150.8601,65.5179 C150.8601,65.8389 150.6591,66.1369 150.2551,66.4109 C149.8521,66.6869 149.4281,66.8229 148.9841,66.8229 C148.2071,66.8229 147.6301,66.6219 147.2511,66.2189 C146.8731,65.8159 146.6841,65.2849 146.6841,64.6279 L146.6841,60.2739 C146.5111,60.2889 146.3211,60.2959 146.1171,60.2959 C145.9121,60.2959 145.7431,60.2409 145.6131,60.1329 C145.4811,60.0239 145.4151,59.8819 145.4151,59.7059 C145.4151,59.5309 145.4811,59.3939 145.6131,59.2939 C145.7431,59.1959 145.9041,59.1459 146.0941,59.1459 C146.2851,59.1459 146.4781,59.1509 146.6761,59.1609 C146.6721,58.9979 146.6661,58.8049 146.6621,58.5829 L146.6321,57.9299 C146.6261,57.7119 146.6211,57.5189 146.6141,57.3509 C146.6061,57.1829 146.6021,57.0719 146.6021,57.0169 C146.6021,56.7649 146.6721,56.5769 146.8101,56.4539 C146.9491,56.3299 147.1211,56.2679 147.3291,56.2679 C147.8041,56.2679 148.0411,56.5429 148.0411,57.0919 L147.9751,59.1979 Z" id="Fill-116" fill="#414142"></path>
                    <path d="M153.393,62.2316 L153.905,62.2466 C154.073,62.2516 154.612,62.2536 155.522,62.2536 C156.431,62.2536 157.028,62.1796 157.309,62.0316 C157.591,61.8836 157.733,61.6586 157.733,61.3566 C157.733,61.0556 157.561,60.7886 157.22,60.5556 C156.879,60.3236 156.501,60.2066 156.085,60.2066 C155.359,60.2066 154.76,60.3926 154.29,60.7636 C153.821,61.1336 153.522,61.6236 153.393,62.2316 M158.37,64.3756 C158.805,64.3756 159.023,64.5716 159.023,64.9616 C159.023,65.1396 158.955,65.3386 158.819,65.5576 C158.683,65.7786 158.484,65.9826 158.221,66.1706 C157.609,66.6056 156.807,66.8236 155.815,66.8236 C154.823,66.8236 153.964,66.4896 153.237,65.8216 C152.875,65.4916 152.587,65.0836 152.37,64.5986 C152.152,64.1136 152.043,63.5816 152.043,63.0026 C152.043,61.8766 152.414,60.9326 153.156,60.1736 C153.898,59.4146 154.832,59.0346 155.959,59.0346 C156.899,59.0346 157.644,59.2636 158.196,59.7216 C158.747,60.1786 159.023,60.7406 159.023,61.4086 C159.023,62.0766 158.753,62.5746 158.214,62.9026 C157.675,63.2316 156.652,63.3966 155.143,63.3966 C154.743,63.3966 154.15,63.3816 153.363,63.3516 C153.453,64.1186 153.749,64.6936 154.253,65.0776 C154.758,65.4606 155.285,65.6516 155.833,65.6516 C156.382,65.6516 156.816,65.5906 157.135,65.4696 C157.455,65.3486 157.684,65.1356 157.825,64.8316 C157.965,64.5276 158.147,64.3756 158.37,64.3756" id="Fill-118" fill="#414142"></path>
                    <path d="M171.0776,63.6266 C170.2766,63.4736 169.5656,63.3966 168.9456,63.3966 C168.3246,63.3966 167.8676,63.5186 167.5726,63.7636 C167.2786,64.0076 167.1316,64.2866 167.1316,64.5986 C167.1316,64.9096 167.2676,65.1656 167.5396,65.3666 C167.8116,65.5656 168.1926,65.6666 168.6816,65.6666 C169.6856,65.6666 170.4846,65.3426 171.0776,64.6946 L171.0776,63.6266 Z M171.2486,65.8446 C170.7046,66.4976 169.8026,66.8236 168.5416,66.8236 C167.6996,66.8236 167.0316,66.6296 166.5336,66.2456 C166.0376,65.8586 165.7886,65.3366 165.7886,64.6786 C165.7886,63.5866 166.3946,62.8746 167.6056,62.5436 C168.0166,62.4346 168.5476,62.3806 169.1976,62.3806 C169.8476,62.3806 170.4736,62.4546 171.0776,62.6026 L171.0776,61.7866 C171.0776,60.9706 170.7516,60.4716 170.0986,60.2886 C169.8656,60.2196 169.5556,60.1846 169.1636,60.1846 C168.3276,60.1846 167.8466,60.4066 167.7186,60.8526 C167.6396,61.0896 167.4976,61.2596 167.2946,61.3636 C167.2056,61.4086 167.1046,61.4306 166.9906,61.4306 C166.5206,61.4306 166.2856,61.1786 166.2856,60.6736 C166.2856,60.2436 166.5686,59.8626 167.1356,59.5316 C167.7016,59.2006 168.4206,59.0346 169.2896,59.0346 C170.7646,59.0346 171.7156,59.5566 172.1456,60.6006 C172.2886,60.9566 172.3606,61.3766 172.3606,61.8606 L172.3606,63.7816 C172.3606,64.4546 172.3886,64.9056 172.4426,65.1356 C172.4966,65.3666 172.5986,65.5286 172.7466,65.6216 C173.0096,65.7906 173.1396,65.9856 173.1396,66.2086 C173.1396,66.6186 172.8816,66.8236 172.3646,66.8236 C171.8486,66.8236 171.4746,66.4976 171.2486,65.8446 Z" id="Fill-120" fill="#414142"></path>
                    <path d="M177.8462,66.8234 C177.4152,66.8234 176.9992,66.7884 176.5992,66.7194 C176.3972,67.0754 176.1852,67.2534 175.9612,67.2534 C175.6452,67.2534 175.4872,67.1074 175.4872,66.8154 C175.4872,66.5584 175.4212,66.3194 175.2902,66.0964 C175.1582,65.8744 175.0442,65.6884 174.9462,65.5404 C174.6152,65.0464 174.4492,64.7004 174.4492,64.5014 C174.4492,64.3034 174.5052,64.1584 174.6192,64.0644 C174.7332,63.9694 174.8592,63.9234 174.9972,63.9234 C175.2692,63.9234 175.5152,64.1394 175.7352,64.5724 C175.9552,65.0054 176.2162,65.2934 176.5182,65.4364 C176.8192,65.5794 177.2942,65.6514 177.9422,65.6514 C178.8972,65.6514 179.5182,65.3804 179.8042,64.8354 C179.8932,64.6734 179.9382,64.4944 179.9382,64.3014 C179.9382,63.9154 179.7702,63.6424 179.4332,63.4814 C179.0972,63.3214 178.5752,63.2184 177.8682,63.1744 C177.1602,63.1294 176.6392,63.0524 176.3032,62.9444 C175.3242,62.6124 174.8342,62.0244 174.8342,61.1784 C174.8342,60.6594 175.1072,60.1904 175.6542,59.7724 C176.2002,59.3554 176.9992,59.1464 178.0532,59.1464 C178.2772,59.1464 178.4982,59.1664 178.7212,59.2054 C178.6712,59.0674 178.6472,58.9504 178.6472,58.8564 C178.6472,58.7634 178.6892,58.6754 178.7732,58.5934 C178.8582,58.5114 178.9612,58.4714 179.0882,58.4714 C179.2152,58.4714 179.3122,58.5034 179.3812,58.5674 C179.4502,58.6324 179.5302,58.7524 179.6182,58.9274 C179.7072,59.1034 179.8782,59.3524 180.1302,59.6764 C180.3822,60.0004 180.5392,60.2234 180.6022,60.3444 C180.6632,60.4654 180.6952,60.5944 180.6952,60.7334 C180.6952,60.8714 180.6512,60.9884 180.5652,61.0824 C180.4772,61.1764 180.3632,61.2224 180.2202,61.2224 C179.9472,61.2224 179.7022,61.0424 179.4862,60.6814 C179.3762,60.4984 179.2182,60.3724 179.0102,60.3024 C178.8032,60.2344 178.4422,60.1994 177.9282,60.1994 C177.4132,60.1994 177.0012,60.2924 176.6922,60.4774 C176.3832,60.6634 176.2292,60.8824 176.2292,61.1344 C176.2292,61.3864 176.3082,61.5614 176.4652,61.6604 C176.7582,61.8484 177.2132,61.9604 177.8302,61.9944 C179.0172,62.0644 179.8792,62.2664 180.4162,62.6024 C180.9512,62.9394 181.2212,63.4404 181.2212,64.1084 C181.2212,64.9644 180.8952,65.6304 180.2422,66.1074 C179.5892,66.5854 178.7902,66.8234 177.8462,66.8234" id="Fill-122" fill="#414142"></path>
                    <path d="M193.4087,63.6266 C192.6077,63.4736 191.8967,63.3966 191.2767,63.3966 C190.6547,63.3966 190.1987,63.5186 189.9037,63.7636 C189.6097,64.0076 189.4627,64.2866 189.4627,64.5986 C189.4627,64.9096 189.5977,65.1656 189.8707,65.3666 C190.1427,65.5656 190.5237,65.6666 191.0127,65.6666 C192.0157,65.6666 192.8157,65.3426 193.4087,64.6946 L193.4087,63.6266 Z M193.5787,65.8446 C193.0357,66.4976 192.1337,66.8236 190.8727,66.8236 C190.0307,66.8236 189.3627,66.6296 188.8657,66.2456 C188.3687,65.8586 188.1197,65.3366 188.1197,64.6786 C188.1197,63.5866 188.7257,62.8746 189.9367,62.5436 C190.3477,62.4346 190.8787,62.3806 191.5287,62.3806 C192.1787,62.3806 192.8047,62.4546 193.4087,62.6026 L193.4087,61.7866 C193.4087,60.9706 193.0827,60.4716 192.4297,60.2886 C192.1967,60.2196 191.8867,60.1846 191.4947,60.1846 C190.6587,60.1846 190.1767,60.4066 190.0497,60.8526 C189.9707,61.0896 189.8287,61.2596 189.6257,61.3636 C189.5367,61.4086 189.4357,61.4306 189.3227,61.4306 C188.8517,61.4306 188.6167,61.1786 188.6167,60.6736 C188.6167,60.2436 188.8997,59.8626 189.4667,59.5316 C190.0327,59.2006 190.7517,59.0346 191.6207,59.0346 C193.0957,59.0346 194.0467,59.5566 194.4767,60.6006 C194.6197,60.9566 194.6917,61.3766 194.6917,61.8606 L194.6917,63.7816 C194.6917,64.4546 194.7197,64.9056 194.7737,65.1356 C194.8277,65.3666 194.9297,65.5286 195.0777,65.6216 C195.3407,65.7906 195.4717,65.9856 195.4717,66.2086 C195.4717,66.6186 195.2127,66.8236 194.6957,66.8236 C194.1797,66.8236 193.8067,66.4976 193.5787,65.8446 Z" id="Fill-124" fill="#414142"></path>
                    <path d="M205.4936,66.7121 L204.1366,66.6671 L203.3876,66.6911 C203.1936,66.7041 202.9986,66.7121 202.8016,66.7121 C202.3266,66.7121 202.0886,66.5281 202.0886,66.1631 C202.0886,65.9851 202.1626,65.8471 202.3106,65.7471 C202.4596,65.6491 202.6646,65.5991 202.9276,65.5991 L203.5636,65.5991 L203.5636,56.6841 C203.5636,56.3871 203.5056,56.2381 203.3876,56.2381 C203.3476,56.2381 203.3036,56.2431 203.2536,56.2541 L203.0756,56.2981 C202.9516,56.3221 202.8376,56.3351 202.7336,56.3351 C202.2996,56.3351 202.0806,56.1341 202.0806,55.7341 C202.0806,55.5761 202.1506,55.4411 202.2886,55.3301 C202.4286,55.2191 202.6406,55.1491 202.9306,55.1221 C203.2196,55.0951 203.4336,55.0621 203.5716,55.0221 L203.9056,54.9251 C203.9946,54.9011 204.0926,54.8881 204.1946,54.8881 C204.6446,54.8881 204.8706,55.1291 204.8706,55.6081 L204.8706,62.6471 C205.9036,62.3061 206.8236,61.7571 207.6296,61.0011 C207.8916,60.7541 208.1116,60.4961 208.2896,60.2291 L207.4436,60.2741 C207.2066,60.2741 207.0196,60.2221 206.8846,60.1181 C206.7476,60.0141 206.6806,59.8771 206.6806,59.7061 C206.6806,59.5351 206.7516,59.3981 206.8946,59.2941 C207.0386,59.1911 207.2436,59.1391 207.5116,59.1391 L209.0386,59.1981 L210.3376,59.1091 C210.5976,59.1091 210.7886,59.1641 210.9036,59.2721 C211.0206,59.3811 211.0786,59.5151 211.0786,59.6721 C211.0786,60.0491 210.8186,60.2361 210.2996,60.2361 L210.0626,60.2361 C209.9686,60.2361 209.8596,60.2321 209.7366,60.2221 C209.3016,60.9191 208.6406,61.6041 207.7556,62.2761 C208.2996,62.8951 208.7546,63.5051 209.1206,64.1081 L210.0036,65.5991 L210.5076,65.5991 C211.1306,65.5991 211.4416,65.7951 211.4416,66.1861 C211.4416,66.3231 211.3826,66.4461 211.2646,66.5531 C211.1456,66.6591 210.9896,66.7121 210.7976,66.7121 L209.3646,66.6671 L208.6156,66.6911 C208.4236,66.7041 208.2026,66.7121 207.9556,66.7121 C207.4806,66.7121 207.2436,66.5281 207.2436,66.1631 C207.2436,65.9851 207.3186,65.8471 207.4666,65.7471 C207.6146,65.6491 207.8196,65.5991 208.0816,65.5991 L208.5866,65.5991 C207.9636,64.4971 207.3576,63.6091 206.7686,62.9371 C206.1106,63.3271 205.4786,63.6091 204.8706,63.7821 L204.8706,65.5991 L205.2036,65.5991 C205.8276,65.5991 206.1386,65.7951 206.1386,66.1861 C206.1386,66.3231 206.0796,66.4461 205.9606,66.5531 C205.8426,66.6591 205.6856,66.7121 205.4936,66.7121" id="Fill-126" fill="#414142"></path>
                    <path d="M215.5395,56.4318 C215.5395,56.9108 215.3365,57.2228 214.9315,57.3668 C214.8175,57.4058 214.6565,57.4258 214.4495,57.4258 C214.2415,57.4258 214.0505,57.3438 213.8775,57.1808 C213.7045,57.0168 213.6175,56.8048 213.6175,56.5428 C213.6175,56.2808 213.7085,56.0628 213.8895,55.8898 C214.0695,55.7168 214.3075,55.6298 214.6025,55.6298 C214.8945,55.6298 215.1255,55.7078 215.2905,55.8638 C215.4565,56.0198 215.5395,56.2088 215.5395,56.4318 M216.1335,66.7118 L214.7375,66.6668 C214.5305,66.6668 214.3755,66.6698 214.2705,66.6748 L213.9445,66.6908 C213.6965,66.7038 213.4795,66.7118 213.2915,66.7118 C212.8125,66.7118 212.5725,66.5288 212.5725,66.1628 C212.5725,65.9858 212.6475,65.8468 212.7985,65.7468 C212.9495,65.6488 213.1505,65.5988 213.4025,65.5988 L213.9815,65.5988 L213.9815,60.7638 C213.9815,60.4668 213.9175,60.3178 213.7895,60.3178 C213.7285,60.3178 213.6375,60.3358 213.5115,60.3698 C213.3855,60.4048 213.2435,60.4218 213.0885,60.4218 C212.9325,60.4218 212.7925,60.3698 212.6685,60.2658 C212.5455,60.1628 212.4825,60.0218 212.4825,59.8438 C212.4825,59.4678 212.7505,59.2528 213.2845,59.1978 C213.6155,59.1678 213.8865,59.1238 214.0965,59.0648 C214.3075,59.0048 214.5105,58.9758 214.7085,58.9758 C215.0785,58.9758 215.2655,59.2128 215.2655,59.6878 L215.2655,65.5988 L215.8515,65.5988 C216.4745,65.5988 216.7855,65.7948 216.7855,66.1858 C216.7855,66.3238 216.7255,66.4468 216.6035,66.5528 C216.4825,66.6598 216.3255,66.7118 216.1335,66.7118" id="Fill-128" fill="#414142"></path>
                    <path d="M223.2934,60.756 C222.8144,60.39 222.2234,60.207 221.5234,60.207 C220.8244,60.207 220.2324,60.462 219.7504,60.971 C219.2694,61.48 219.0274,62.147 219.0274,62.97 C219.0274,63.793 219.2474,64.446 219.6884,64.928 C220.1274,65.41 220.7164,65.652 221.4534,65.652 C222.1894,65.652 222.8034,65.367 223.2934,64.798 L223.2934,60.756 Z M223.4854,65.888 C222.9264,66.512 222.1754,66.823 221.2304,66.823 C220.2864,66.823 219.4674,66.481 218.7754,65.796 C218.0824,65.11 217.7364,64.192 217.7364,63.036 C217.7364,61.882 218.1154,60.926 218.8714,60.17 C219.6284,59.413 220.5774,59.035 221.7204,59.035 C222.3044,59.035 222.8274,59.161 223.2934,59.413 L223.2934,56.676 C223.2934,56.484 223.2764,56.362 223.2444,56.313 C223.2124,56.263 223.1674,56.238 223.1074,56.238 L222.4694,56.328 C222.2724,56.328 222.1094,56.278 221.9834,56.179 C221.8574,56.08 221.7944,55.942 221.7944,55.764 C221.7944,55.388 222.0644,55.173 222.6034,55.119 C222.9694,55.084 223.2424,55.037 223.4224,54.978 C223.6034,54.919 223.7974,54.888 224.0044,54.888 C224.3854,54.888 224.5764,55.126 224.5764,55.601 L224.5764,63.782 C224.5764,64.455 224.6044,64.905 224.6564,65.136 C224.7114,65.366 224.8134,65.528 224.9614,65.621 C225.2184,65.79 225.3474,65.98 225.3474,66.193 C225.3474,66.613 225.0944,66.823 224.5874,66.823 C224.0804,66.823 223.7134,66.512 223.4854,65.888 Z" id="Fill-130" fill="#414142"></path>
                    <path d="M228.4321,56.8986 C228.7591,56.8986 228.9221,56.8086 228.9221,56.6276 C228.9221,56.5306 228.8941,56.4656 228.8381,56.4336 C228.7311,56.3756 228.5761,56.3466 228.3731,56.3466 L228.3001,56.3466 C228.2811,56.3466 228.2621,56.3476 228.2451,56.3496 L228.2451,56.8986 L228.4321,56.8986 Z M229.3911,56.6346 C229.3911,56.9156 229.2441,57.1066 228.9521,57.2066 C229.0361,57.3456 229.1381,57.4296 229.2551,57.4586 C229.2861,57.4686 229.3261,57.4786 229.3711,57.4876 C229.4731,57.5076 229.5221,57.5736 229.5221,57.6856 C229.5221,57.7336 229.5031,57.7796 229.4661,57.8206 C229.4271,57.8626 229.3741,57.8826 229.3061,57.8826 C229.0811,57.8826 228.8911,57.7856 228.7361,57.5906 C228.6691,57.5126 228.6011,57.3996 228.5311,57.2536 L228.2451,57.2536 L228.2451,57.5096 L228.3481,57.5096 C228.4071,57.5096 228.4521,57.5276 228.4851,57.5636 C228.5171,57.5986 228.5351,57.6376 228.5351,57.6796 C228.5351,57.7226 228.5191,57.7656 228.4911,57.8076 C228.4611,57.8506 228.4141,57.8726 228.3511,57.8726 L227.7371,57.8726 C227.6731,57.8726 227.6231,57.8546 227.5881,57.8176 C227.5531,57.7806 227.5351,57.7366 227.5351,57.6856 C227.5351,57.6346 227.5531,57.5916 227.5881,57.5596 C227.6231,57.5266 227.6731,57.5096 227.7371,57.5096 L227.8171,57.5096 L227.8171,56.4046 C227.7871,56.4126 227.7441,56.4156 227.6851,56.4156 C227.6271,56.4156 227.5791,56.3946 227.5421,56.3536 C227.5061,56.3126 227.4881,56.2626 227.4881,56.2056 C227.4881,56.1486 227.5201,56.0956 227.5841,56.0476 C227.6501,56.0006 227.7581,55.9766 227.9091,55.9766 L228.4321,55.9766 C229.0711,55.9766 229.3911,56.1956 229.3911,56.6346 Z M228.5071,58.5196 C228.9761,58.5196 229.3541,58.3796 229.6391,58.0986 C229.9241,57.8186 230.0681,57.4416 230.0681,56.9686 C230.0681,56.4956 229.9201,56.1136 229.6261,55.8246 C229.3321,55.5356 228.9511,55.3916 228.4821,55.3916 C228.0121,55.3916 227.6311,55.5376 227.3391,55.8286 C227.0481,56.1196 226.9031,56.4966 226.9031,56.9576 C226.9031,57.4186 227.0531,57.7946 227.3531,58.0846 C227.6531,58.3746 228.0371,58.5196 228.5071,58.5196 Z M228.4721,58.9916 C227.8831,58.9916 227.3891,58.7996 226.9871,58.4156 C226.5841,58.0316 226.3821,57.5506 226.3821,56.9746 C226.3821,56.3966 226.5851,55.9096 226.9921,55.5126 C227.3991,55.1146 227.8941,54.9156 228.4821,54.9156 C229.0691,54.9156 229.5671,55.1076 229.9771,55.4916 C230.3891,55.8766 230.5941,56.3656 230.5941,56.9606 C230.5941,57.5566 230.3871,58.0436 229.9751,58.4226 C229.5611,58.8016 229.0601,58.9916 228.4721,58.9916 Z" id="Fill-132" fill="#414142"></path>
                    <path d="M14.5674,43.0558 C17.8344,43.0558 20.5344,40.0158 20.5344,24.7098 C20.5344,9.4018 17.8344,6.3648 14.5674,6.3648 C11.3024,6.3648 8.6044,9.4018 8.6044,24.7098 C8.6044,40.0158 11.3024,43.0558 14.5674,43.0558 M14.5674,5.3508 C19.9704,5.3508 26.2744,12.3858 26.2744,24.7098 C26.2744,37.0348 19.9704,44.0688 14.5674,44.0688 C9.1664,44.0688 2.8624,37.0348 2.8624,24.7098 C2.8624,12.3858 9.1664,5.3508 14.5674,5.3508" id="Fill-134" fill="#C6203B"></path>
                    <path d="M35.1191,39.7355 C35.2321,40.4115 35.4571,40.6345 36.0181,40.6345 L37.9891,40.6345 C38.4391,40.6345 38.6091,40.8055 38.6091,41.0865 C38.6091,41.3685 38.4391,41.5365 37.9891,41.5365 C36.3571,41.5365 34.4991,41.4245 32.4181,41.4245 C30.2791,41.4245 28.4241,41.5365 26.7331,41.5365 C26.3411,41.5365 26.1721,41.3685 26.1721,41.0865 C26.1721,40.8055 26.3411,40.6345 26.7331,40.6345 L28.7031,40.6345 C29.2661,40.6345 29.5471,40.2995 29.6591,39.7355 C30.0541,37.9345 30.1101,30.5635 30.1101,23.5845 C30.1101,16.6055 30.1661,8.2775 29.7741,6.4195 C29.6591,5.8575 29.3801,5.5195 28.7601,5.5195 C28.1411,5.5195 27.4091,5.5765 26.7891,5.5765 C26.3941,5.5765 26.2271,5.4075 26.2271,5.1265 C26.2271,4.8445 26.3941,4.6755 26.7891,4.6755 L31.4611,4.6755 C34.3301,4.6755 35.0071,5.5195 35.0071,8.3895 C35.0071,9.9665 34.8931,17.1695 34.8931,23.9785 C34.8931,31.4065 34.7811,37.6525 35.1191,39.7355" id="Fill-136" fill="#C6203B"></path>
                    <path d="M44.1797,30.0002 C44.1797,40.7482 46.2057,42.2682 48.2887,42.2682 C50.8767,42.2682 53.3527,38.8342 53.3527,29.7182 C53.3527,20.6022 51.1587,16.4372 48.2887,16.4372 C46.2627,16.4372 44.1797,19.0252 44.1797,30.0002 M52.0587,4.3942 C51.4417,4.3942 50.7077,4.4502 50.0887,4.4502 C49.6967,4.4502 49.5277,4.2812 49.5277,4.0002 C49.5277,3.7182 49.6967,3.5502 50.0887,3.5502 L54.7597,3.5502 C57.6297,3.5502 58.3057,4.3942 58.3057,7.2652 C58.3057,8.8402 58.1937,16.0422 58.1937,22.8532 C58.1937,29.8302 58.1937,37.9902 58.5857,39.7922 C58.6987,40.3542 59.0947,40.6922 59.6567,40.6922 C60.1627,40.6922 61.0627,40.6352 61.5707,40.6352 C61.9627,40.6352 62.1317,40.8052 62.1317,41.0852 C62.1317,41.3682 61.9627,41.5362 61.5707,41.5362 L58.1367,41.5362 C55.2107,41.5362 53.7467,40.5232 53.4657,37.0902 C52.7337,41.1992 50.4287,43.2822 47.7257,43.2822 C42.7737,43.2822 38.6097,38.3852 38.6097,29.9432 C38.6097,21.5012 42.9427,15.4242 47.7257,15.4242 C50.6527,15.4242 52.5097,17.6752 53.4087,21.5012 C53.4087,14.8052 53.4087,7.0392 53.0717,5.2942 C52.9577,4.7312 52.6767,4.3942 52.0587,4.3942" id="Fill-138" fill="#C6203B"></path>
                    <path d="M87.6787,7.7702 C88.0147,7.7702 88.1837,7.9392 88.1837,8.2772 C88.1837,9.9662 88.1297,13.6222 88.1297,15.3122 C88.1297,16.9992 88.1837,18.9422 88.1837,20.6292 C88.1837,21.0232 87.9577,21.1922 87.6787,21.1922 C87.3967,21.1922 87.1717,21.0232 87.1717,20.6292 L87.1717,18.2952 C87.1717,11.8212 85.2577,8.8392 80.7557,8.8392 C80.1377,8.8392 79.9097,9.1212 79.8557,9.6852 C79.5747,12.2722 79.5177,19.4192 79.5177,25.7792 C79.5177,32.1392 79.5747,39.1722 79.8557,41.7612 C79.9687,42.7732 80.4177,43.1682 81.5987,43.1682 L84.5827,43.1682 C84.9777,43.1682 85.1447,43.3362 85.1447,43.6182 C85.1447,43.9002 84.9777,44.0692 84.5827,44.0692 C82.8947,44.0692 79.0677,43.9562 76.9277,43.9562 C74.7917,43.9562 70.9627,44.0692 69.2767,44.0692 C68.8797,44.0692 68.7127,43.9002 68.7127,43.6182 C68.7127,43.3362 68.8797,43.1682 69.2767,43.1682 L72.2587,43.1682 C73.4407,43.1682 73.8907,42.7732 74.0037,41.7612 C74.2847,39.1722 74.3417,32.1392 74.3417,25.7792 C74.3417,19.4192 74.2847,12.2722 74.0037,9.6852 C73.9477,9.1212 73.7217,8.8392 73.1017,8.8392 C68.5997,8.8392 66.6857,11.8212 66.6857,18.2952 L66.6857,20.1862 C66.6857,20.5802 66.4607,20.7492 66.1787,20.7492 C65.8997,20.7492 65.6737,20.5802 65.6737,20.1862 C65.6737,18.4982 65.7307,16.9992 65.7307,15.3122 C65.7307,13.6222 65.6737,9.9662 65.6737,8.2772 C65.6737,7.9392 65.8427,7.7702 66.1217,7.7702 C68.9397,7.7702 74.2267,7.8842 76.9277,7.8842 C79.6287,7.8842 84.8637,7.7702 87.6787,7.7702" id="Fill-140" fill="#C6203B"></path>
                    <path d="M95.3945,7.7634 C97.6445,7.7634 98.9385,9.0574 98.9385,10.6914 C98.9385,12.4924 97.6445,13.6174 95.3945,13.6174 C93.3115,13.6174 91.9075,12.5484 91.9075,10.6914 C91.9075,9.0574 93.2575,7.7634 95.3945,7.7634 M98.5945,31.4064 C98.5945,34.8964 98.6515,39.2294 98.8225,41.4244 C98.8785,42.1004 99.1585,42.3254 99.7215,42.3254 L101.6355,42.3254 C102.0285,42.3254 102.1975,42.4934 102.1975,42.7754 C102.1975,43.0564 102.0285,43.2254 101.6355,43.2254 C100.0015,43.2254 98.2025,43.1134 96.1195,43.1134 C93.9795,43.1134 92.1235,43.2254 90.4355,43.2254 C90.0405,43.2254 89.8725,43.0564 89.8725,42.7754 C89.8725,42.4934 90.0405,42.3254 90.4355,42.3254 L92.4065,42.3254 C92.9675,42.3254 93.2485,41.9874 93.3625,41.4244 C93.7005,40.0164 93.7565,34.3324 93.7565,29.8874 C93.7565,25.7234 93.6415,19.9824 93.3625,18.8014 C93.2485,18.2384 92.9675,17.9004 92.3495,17.9004 C91.7275,17.9004 91.0535,17.9564 90.4355,17.9564 C90.0405,17.9564 89.8725,17.7894 89.8725,17.5074 C89.8725,17.2244 90.0405,17.0564 90.4355,17.0564 L95.1075,17.0564 C97.9765,17.0564 98.6515,17.9004 98.6515,20.7714 C98.6515,22.3464 98.5945,29.1004 98.5945,31.4064" id="Fill-142" fill="#C6203B"></path>
                    <path d="M121.8398,20.2375 C122.6258,16.8045 124.6528,15.0595 127.6358,15.0595 C132.6448,15.0595 134.1058,19.3935 134.1638,25.3025 C134.2208,30.7055 133.8258,37.1145 134.3308,39.7605 C134.4438,40.3795 134.7818,40.6045 135.2888,40.6045 L137.2578,40.6045 C137.6528,40.6045 137.8228,40.7735 137.8228,41.0555 C137.8228,41.3365 137.6528,41.5055 137.2578,41.5055 C135.6268,41.5055 133.6008,41.4485 131.5178,41.4485 C129.5478,41.4485 127.8608,41.5055 126.1728,41.5055 C125.7778,41.5055 125.6098,41.3365 125.6098,41.0555 C125.6098,40.7735 125.7778,40.6045 126.1728,40.6045 L127.9168,40.6045 C128.4788,40.6045 128.7608,40.3795 128.8728,39.8165 C129.1548,38.2965 129.3808,28.1165 129.2108,23.1075 C129.0418,18.0425 128.2558,16.1845 126.3978,16.1845 C124.2588,16.1845 122.5158,18.8315 122.1778,23.9525 C121.9518,27.6655 121.6698,38.9765 122.1778,41.6235 C122.2878,42.2435 122.6258,42.4665 123.1338,42.4665 L124.9908,42.4665 C125.3838,42.4665 125.5528,42.6355 125.5528,42.9155 C125.5528,43.1975 125.3838,43.3675 124.9908,43.3675 C123.3598,43.3675 121.4448,43.3105 119.3618,43.3105 C117.3938,43.3105 115.4798,43.3675 113.7908,43.3675 C113.3988,43.3675 113.2298,43.1975 113.2298,42.9155 C113.2298,42.6355 113.3988,42.4665 113.7908,42.4665 L115.7618,42.4665 C116.3228,42.4665 116.6068,42.2435 116.7178,41.6795 C116.9988,40.1605 117.3378,26.8785 117.1658,21.8705 C116.9988,16.8615 116.2668,14.9475 114.4108,14.9475 C112.3278,14.9475 110.6958,17.1985 110.3608,22.7145 C110.0758,26.7655 110.0758,36.5015 110.4138,38.6955 C110.5268,39.3705 110.7548,39.5965 111.3168,39.5965 L113.2858,39.5965 C113.7358,39.5965 113.9038,39.7665 113.9038,40.0475 C113.9038,40.3285 113.7358,40.4965 113.2858,40.4965 C111.6518,40.4965 109.7968,40.3845 107.7138,40.3845 C105.5758,40.3845 103.7188,40.4965 102.0298,40.4965 C101.6358,40.4965 101.4668,40.3285 101.4668,40.0475 C101.4668,39.7665 101.6358,39.5965 102.0298,39.5965 L103.9978,39.5965 C104.5618,39.5965 104.8438,39.2595 104.9558,38.6955 C105.2948,37.2895 105.3508,31.6045 105.3508,27.1605 C105.3508,22.9955 105.2358,18.9435 104.9558,17.7605 C104.8438,17.1985 104.5618,16.8615 103.9428,16.8615 C103.4348,16.8615 102.5348,16.9175 102.0298,16.9175 C101.6358,16.9175 101.4668,16.7485 101.4668,16.4675 C101.4668,16.1845 101.6358,16.0175 102.0298,16.0175 L105.4618,16.0175 C107.9948,16.0175 109.4578,16.8045 109.9658,19.3385 C110.6398,16.0175 112.2718,14.0485 114.9728,13.8225 C119.2488,13.5405 121.1628,16.1845 121.8398,20.2375" id="Fill-144" fill="#C6203B"></path>
                    <path d="M148.1191,16.55 C145.2511,16.55 143.5601,20.434 143.4501,28.593 C145.8121,28.649 149.3011,28.649 151.7221,28.649 C151.9451,20.321 150.9341,16.55 148.1191,16.55 M157.1821,35.684 C157.2921,35.178 157.5741,35.008 158.0251,35.122 C158.4191,35.233 158.4721,35.684 158.3611,36.133 C157.1821,40.862 153.8031,43.506 149.0771,43.506 C142.8871,43.506 137.8231,38.891 137.8231,29.831 C137.8231,21.39 142.6611,15.651 148.1191,15.651 C153.4651,15.651 157.3481,20.883 157.3481,28.987 C157.3481,29.437 157.1821,29.606 156.7301,29.606 C152.7341,29.606 147.4431,29.494 143.4501,29.606 L143.4501,29.831 C143.4501,40.072 145.6411,42.493 149.3011,42.493 C153.0701,42.493 155.9981,40.354 157.1821,35.684" id="Fill-146" fill="#C6203B"></path>
                    <path d="M184.2002,32.026 C184.2002,39.68 180.7682,44.293 175.9292,44.293 C169.3442,44.293 163.9412,37.428 163.9412,25.047 C163.9412,12.723 170.2432,5.351 175.6442,5.351 C178.1792,5.351 178.8542,6.308 180.3742,6.308 C181.4422,6.308 182.0042,5.745 182.0042,4.732 L182.0042,1.672 C182.0042,1.278 182.1742,1.11 182.4552,1.11 C182.8512,1.11 183.0182,1.278 183.0182,1.672 C183.0182,3.36 182.9622,9.29 182.9622,11.429 C182.9622,13.51 183.0182,19.097 183.0182,20.84 C183.0182,21.234 182.8512,21.403 182.4552,21.403 C182.1742,21.403 182.0042,21.234 182.0042,20.84 L182.0042,15.009 C182.0042,7.805 178.7482,6.364 175.6442,6.364 C172.3852,6.364 169.6812,9.685 169.6812,24.992 C169.6812,38.216 172.3852,43.112 176.4352,43.112 C179.5852,43.112 183.0182,39.624 183.0182,31.858 C183.0182,30.844 183.1312,30.45 183.5802,30.45 C183.9742,30.45 184.2002,30.901 184.2002,32.026" id="Fill-148" fill="#C6203B"></path>
                    <path d="M199.2275,29.7184 C192.5305,29.3814 191.4605,31.6324 191.4605,36.7534 C191.4605,40.8054 193.0935,42.4364 194.7255,42.4364 C196.8635,42.4364 198.8895,40.1304 199.1155,35.4024 C199.1705,33.6014 199.2275,31.6324 199.2275,29.7184 M199.2845,39.1724 C198.3845,42.1004 196.4145,43.5634 193.9935,43.5634 C189.2655,43.5634 185.8885,40.6354 185.8885,36.2464 C185.8885,31.4064 188.2525,28.5384 199.2275,28.8194 C199.2275,26.8474 199.1705,25.0484 199.1155,23.7544 C198.9455,18.6324 197.5395,16.4374 194.6135,16.4374 C193.2065,16.4374 192.1915,16.8314 191.3485,17.5624 C192.5875,18.5754 193.1495,20.3214 193.1495,22.1204 C193.1495,25.0484 191.8535,26.6234 190.2805,26.6234 C188.6475,26.6234 187.6355,25.4414 187.6355,23.2464 C187.6355,18.9144 190.5615,15.5934 195.2305,15.5934 C200.8035,15.5934 204.0115,19.7584 204.0655,26.0044 C204.1225,31.4064 203.8415,39.0044 204.2345,41.5354 C204.5165,43.2254 205.3595,44.0124 206.6545,44.0124 C207.2175,44.0124 207.7815,43.9004 208.2315,43.7874 C208.6825,43.6744 208.8515,43.7874 208.9065,44.0124 C208.9615,44.2944 208.8515,44.4634 208.4565,44.6324 C207.6115,44.9704 206.5975,45.1374 205.4155,45.1374 C202.0405,45.1374 199.7895,43.6184 199.2845,39.1724" id="Fill-150" fill="#C6203B"></path>
                    <path d="M227.5918,26.6799 C227.6468,32.0829 227.2518,40.5249 227.7618,43.1689 C227.8718,43.7879 228.2098,44.0129 228.7148,44.0129 L230.6858,44.0129 C231.0798,44.0129 231.2488,44.1819 231.2488,44.4639 C231.2488,44.7449 231.0798,44.9129 230.6858,44.9129 C229.0558,44.9129 227.0288,44.8569 224.9458,44.8569 C222.9778,44.8569 221.0618,44.9129 219.3748,44.9129 C218.9788,44.9129 218.8118,44.7449 218.8118,44.4639 C218.8118,44.1819 218.9788,44.0129 219.3748,44.0129 L221.3438,44.0129 C221.9088,44.0129 222.1888,43.7879 222.3008,43.2259 C222.5828,41.7059 222.8088,29.4939 222.6378,24.4849 C222.4708,19.0819 221.5708,17.6759 219.3748,17.6759 C217.1228,17.6759 214.8728,19.7019 214.5328,25.3289 C214.2528,29.3809 214.2528,37.5409 214.5908,39.7359 C214.7038,40.4119 214.9298,40.6349 215.4908,40.6349 L217.4608,40.6349 C217.9098,40.6349 218.0788,40.8059 218.0788,41.0859 C218.0788,41.3679 217.9098,41.5359 217.4608,41.5359 C215.8288,41.5359 213.9718,41.4249 211.8888,41.4249 C209.7508,41.4249 207.8938,41.5359 206.2048,41.5359 C205.8108,41.5359 205.6438,41.3679 205.6438,41.0859 C205.6438,40.8059 205.8108,40.6349 206.2048,40.6349 L208.1758,40.6349 C208.7368,40.6349 209.0188,40.2999 209.1308,39.7359 C209.4698,38.3289 209.5258,32.6449 209.5258,28.1999 C209.5258,24.0349 209.4128,18.2949 209.1308,17.1129 C209.0188,16.5499 208.7368,16.2129 208.1168,16.2129 C207.6118,16.2129 206.7118,16.2689 206.2048,16.2689 C205.8108,16.2689 205.6438,16.0989 205.6438,15.8189 C205.6438,15.5369 205.8108,15.3689 206.2048,15.3689 L209.6388,15.3689 C212.9028,15.3689 214.3098,16.7189 214.3658,21.2769 C215.2658,18.1819 217.5178,16.3809 220.4438,16.3809 C225.9578,16.3809 227.5358,20.5449 227.5918,26.6799" id="Fill-152" fill="#C6203B"></path>
                    <path d="M235.8076,30.0002 C235.8076,40.7482 237.8316,42.2682 239.9126,42.2682 C242.5026,42.2682 244.9786,38.8342 244.9786,29.7182 C244.9786,20.6022 242.7856,16.4372 239.9126,16.4372 C237.8886,16.4372 235.8076,19.0252 235.8076,30.0002 M243.6846,4.3942 C243.0666,4.3942 242.3336,4.4502 241.7136,4.4502 C241.3196,4.4502 241.1526,4.2812 241.1526,4.0002 C241.1526,3.7182 241.3196,3.5502 241.7136,3.5502 L246.3856,3.5502 C249.2566,3.5502 249.9316,4.3942 249.9316,7.2652 C249.9316,8.8402 249.8186,16.0422 249.8186,22.8532 C249.8186,29.8302 249.8186,37.9902 250.2126,39.7922 C250.3246,40.3542 250.7186,40.6922 251.2826,40.6922 C251.7866,40.6922 252.6906,40.6352 253.1956,40.6352 C253.5896,40.6352 253.7596,40.8052 253.7596,41.0852 C253.7596,41.3682 253.5896,41.5362 253.1956,41.5362 L249.7626,41.5362 C246.8356,41.5362 245.3726,40.5232 245.0936,37.0902 C244.3606,41.1992 242.0526,43.2822 239.3516,43.2822 C234.3986,43.2822 230.2346,38.3852 230.2346,29.9432 C230.2346,21.5012 234.5676,15.4242 239.3516,15.4242 C242.2776,15.4242 244.1356,17.6752 245.0356,21.5012 C245.0356,14.8052 245.0356,7.0392 244.6976,5.2942 C244.5836,4.7312 244.3026,4.3942 243.6846,4.3942" id="Fill-154" fill="#C6203B"></path>
                    <path d="M269.5351,18.7033 L267.2851,18.7033 C266.8901,18.7033 266.7221,18.5343 266.7221,18.2543 C266.7221,17.9723 266.8901,17.8033 267.2851,17.8033 C268.9731,17.8033 270.8301,17.9163 272.4071,17.9163 C273.9271,17.9163 275.2211,17.8033 276.2901,17.8033 C276.7381,17.8033 276.9091,17.9723 276.9091,18.2543 C276.9091,18.5343 276.7381,18.7033 276.2901,18.7033 L275.2751,18.7033 C273.7011,18.7033 273.1381,19.0983 272.2931,21.1803 C270.9441,24.7243 266.5891,37.1473 264.6211,43.5063 C262.4811,50.3153 259.3871,54.6483 255.1091,54.6483 C251.3381,54.6483 249.3701,52.0593 249.3701,48.7403 C249.3701,46.7693 250.3821,45.5323 252.0141,45.5323 C253.6441,45.5323 254.8851,46.9383 254.8851,49.4713 C254.8851,51.1593 254.3771,52.4533 253.6441,53.3543 C254.0971,53.5233 254.5461,53.5793 255.0541,53.5793 C258.2051,53.5793 261.0181,50.5403 263.2141,44.0683 C260.5671,36.5283 254.2641,21.2203 252.8571,18.1823 C252.4071,17.2243 251.9011,16.7753 250.6071,16.7753 L249.3131,16.7753 C248.8621,16.7753 248.6931,16.6053 248.6931,16.3243 C248.6931,16.0423 248.8621,15.8743 249.3131,15.8743 C250.9451,15.8743 253.4771,15.9873 255.5581,15.9873 C257.6981,15.9873 261.3001,15.8743 262.9861,15.8743 C263.3811,15.8743 263.5501,16.0423 263.5501,16.3243 C263.5501,16.6053 263.3811,16.7753 262.9861,16.7753 L259.5561,16.7753 C258.8791,16.7753 258.5971,17.1133 258.5971,17.7323 C258.5971,18.9703 263.3811,30.9573 265.5771,36.5283 C267.5471,30.9573 270.4911,22.0793 271.0011,20.2793 C271.3371,18.9843 270.8881,18.7033 269.5351,18.7033" id="Fill-156" fill="#C6203B"></path>
                    <path d="M273.6367,36.444 C272.2207,36.444 271.2687,37.439 271.2687,38.922 C271.2687,40.449 272.1397,41.362 273.6007,41.362 C274.9087,41.362 275.8227,40.343 275.8227,38.885 C275.8227,37.425 274.9437,36.444 273.6367,36.444" id="Fill-158" fill="#C6203B"></path>
                    <path d="M290.75,34.0793 C290.72,34.0733 290.691,34.0723 290.665,34.0723 C290.47,34.0723 290.265,34.2043 290.265,34.5773 C290.265,37.7583 288.403,40.1583 285.93,40.1583 C284.583,40.1583 282.325,39.2003 282.325,32.7813 C282.325,26.2283 284.211,23.7273 285.976,23.5743 C286.98,23.4983 288.089,24.1423 288.646,25.0513 C287.574,25.8443 287.004,27.1443 287.004,28.8253 C287.004,30.3243 287.815,31.4123 288.935,31.4123 C289.893,31.4123 290.862,30.3473 290.862,28.3123 C290.862,25.6673 288.836,22.7213 285.93,22.7213 C281.635,22.7213 278.396,27.0613 278.396,32.8183 C278.396,37.8063 281.321,41.1573 285.672,41.1573 C288.87,41.1573 291.192,38.5593 291.192,34.9783 C291.192,34.5503 291.138,34.1443 290.75,34.0793" id="Fill-160" fill="#C6203B"></path>
                    <path d="M300.0761,39.7555 C298.1451,39.7555 297.1681,36.9525 297.1681,31.4255 C297.1681,25.8995 298.1451,23.0965 300.0761,23.0965 C302.0041,23.0965 302.9811,25.8995 302.9811,31.4255 C302.9811,36.9525 302.0041,39.7555 300.0761,39.7555 M300.0761,22.2445 C296.7611,22.2445 293.2371,25.4635 293.2371,31.4255 C293.2371,37.3905 296.7611,40.6065 300.0761,40.6065 C303.3901,40.6065 306.9121,37.3905 306.9121,31.4255 C306.9121,25.4635 303.3901,22.2445 300.0761,22.2445" id="Fill-162" fill="#C6203B"></path>
                    <g id="Group-166" transform="translate(307.000000, 21.000000)">
                        <mask id="mask-44" fill="white">
                            <use xlink:href="#path-43"></use>
                        </mask>
                        <g id="Clip-165"></g>
                        <path d="M23.6523,18.1169 L22.6903,18.1169 C22.3963,18.1169 22.2543,17.9899 22.1973,17.6749 C21.9813,16.5509 22.0203,14.8049 22.0603,12.2829 C22.0803,10.9999 22.1023,9.6759 22.0903,8.4829 C22.0623,5.5649 21.5773,1.6839 17.7073,1.6839 C15.8493,1.6839 14.5593,2.6899 13.9563,4.6009 C13.3943,2.0879 12.0493,0.8649 9.8623,0.8649 C9.7313,0.8649 9.5943,0.8699 9.4543,0.8789 C7.8193,1.0159 6.7263,2.0809 6.1973,4.0489 C5.7913,2.8199 4.9093,2.3079 3.2733,2.3079 L1.0393,2.3079 C0.5893,2.3079 0.5383,2.6049 0.5383,2.7329 C0.5383,2.8619 0.5893,3.1589 1.0393,3.1589 C1.2083,3.1589 1.4373,3.1509 1.6693,3.1409 C1.8963,3.1309 2.1223,3.1229 2.2853,3.1229 C2.5923,3.1229 2.7463,3.2619 2.8143,3.6069 C2.9733,4.2689 3.0683,6.5449 3.0683,9.6949 C3.0683,13.9579 2.9813,16.4739 2.8123,17.1759 C2.7463,17.5129 2.5993,17.6569 2.3213,17.6569 L1.3593,17.6569 C0.9103,17.6569 0.8603,17.9539 0.8603,18.0819 C0.8603,18.2109 0.9103,18.5089 1.3593,18.5089 C1.8793,18.5089 2.1013,18.4929 2.6753,18.4749 C3.3283,18.4559 4.0043,18.4349 4.7383,18.4349 C5.4573,18.4349 6.1233,18.4559 6.7693,18.4749 C7.3333,18.4929 7.5463,18.5089 8.0473,18.5089 C8.5133,18.5089 8.5823,18.2419 8.5823,18.0819 C8.5823,17.9229 8.5133,17.6569 8.0473,17.6569 L7.0833,17.6569 C6.8053,17.6569 6.6963,17.5849 6.6283,17.1829 C6.4053,15.7219 6.4153,9.4019 6.5933,6.8079 C6.7873,3.6279 7.6783,1.8779 9.0993,1.8779 C10.2023,1.8779 10.6533,3.0639 10.7593,6.2549 C10.8733,9.5409 10.6493,18.1599 10.4673,19.1189 C10.4123,19.4179 10.2813,19.5249 9.9793,19.5249 L9.0143,19.5249 C8.5643,19.5249 8.5153,19.8239 8.5153,19.9509 C8.5153,20.0779 8.5643,20.3759 9.0143,20.3759 C9.5443,20.3759 9.7903,20.3679 10.3733,20.3589 C11.6833,20.3399 13.1323,20.3409 14.3723,20.3599 C14.9463,20.3679 15.1653,20.3759 15.6643,20.3759 C16.1173,20.3759 16.1663,20.0779 16.1663,19.9509 C16.1663,19.8239 16.1173,19.5249 15.6643,19.5249 L14.7773,19.5249 C14.4853,19.5249 14.3393,19.3979 14.2863,19.0829 C13.9623,17.4039 14.1313,10.2029 14.2863,7.6139 C14.4873,4.5729 15.4913,2.6829 16.9023,2.6829 C17.8343,2.6829 18.4803,3.4279 18.6003,7.0609 C18.7053,10.1809 18.5683,16.7179 18.3813,17.7109 C18.3233,18.0149 18.1983,18.1169 17.8903,18.1169 L17.0753,18.1169 C16.6243,18.1169 16.5743,18.4159 16.5743,18.5429 C16.5743,18.6719 16.6243,18.9689 17.0753,18.9689 C17.6043,18.9689 17.8133,18.9609 18.3633,18.9519 C18.9533,18.9429 19.5713,18.9319 20.2373,18.9319 C20.9533,18.9319 21.6603,18.9429 22.3263,18.9529 C22.9163,18.9609 23.1533,18.9689 23.6523,18.9689 C24.1033,18.9689 24.1513,18.6719 24.1513,18.5429 C24.1513,18.4159 24.1033,18.1169 23.6523,18.1169" id="Fill-164" fill="#C6203B" mask="url(#mask-44)"></path>
                    </g>
                </g>
            </g>
        </g>
    </g>
</svg>